<?xml version="1.0" standalone="no"?>
<!DOCTYPE svg PUBLIC "-//W3C//DTD SVG 1.1//EN" "http://www.w3.org/Graphics/SVG/1.1/DTD/svg11.dtd" >
<svg xmlns="http://www.w3.org/2000/svg">
<metadata>
This is a custom SVG webfont generated by Font Squirrel.
Copyright   :  copyright by Fontbit
</metadata>
<defs>
<font id="SpacerBold" horiz-adv-x="1013" >
<font-face units-per-em="2048" ascent="1505" descent="-543" />
<missing-glyph horiz-adv-x="526" />
<glyph unicode=" "  horiz-adv-x="526" />
<glyph unicode="&#x09;" horiz-adv-x="526" />
<glyph unicode="&#xa0;" horiz-adv-x="526" />
<glyph unicode="!" horiz-adv-x="553" d="M80 1097q27 44 70 67q42 21 86 21h3q46 -1 87.5 -23.5t63.5 -64.5l-105 -776q-6 -17 -18.5 -24t-27.5 -7t-29 7t-22 24zM113 95q0 53 36 89.5t90 36.5q52 0 88.5 -36.5t36.5 -89.5q0 -52 -36.5 -90t-88.5 -38q-54 0 -90 38t-36 90z" />
<glyph unicode="&#x22;" horiz-adv-x="640" d="M50 921q12 25 29.5 69t33 95t28 103t19.5 95q26 -2 51.5 -19t46.5 -41.5t35.5 -54t16.5 -57.5q-12 -30 -38 -77t-58 -94.5t-63 -89t-54 -61.5q-10 6 -19.5 21.5t-15.5 35t-9 38.5q-3 16 -3 29v8zM331 921q12 25 28 69t32 95t29.5 103t19.5 95q26 -2 51.5 -19t46.5 -41.5 t35.5 -54t16.5 -57.5q-12 -30 -39.5 -76t-59 -92.5t-63 -88t-51.5 -65.5q-10 6 -19.5 21.5t-15 35t-9.5 38.5q-3 13 -3 25q0 6 1 12z" />
<glyph unicode="#" horiz-adv-x="927" d="M60 372q-1 8 -1 16q0 11 2 23q3 21 10 41t20 32h95l53 244h-95q-6 13 -8 30.5t0 38t8.5 40.5t18.5 33h102l39 178q14 10 38 15t48.5 5t44.5 -6t31 -14l-38 -178h162l38 178q15 10 39 15t48.5 5t44.5 -6t30 -14l-39 -178h104q8 -13 10 -33q1 -8 1 -16q0 -12 -2 -25 q-3 -20 -10 -37.5t-19 -30.5h-109l-53 -244h109q8 -12 10 -32t-1 -40.5t-11 -39t-20 -29.5h-112l-40 -189q-12 -8 -35.5 -12t-47.5 -5h-10q-19 0 -37 3q-23 4 -32 14l40 189h-162l-41 -189q-12 -8 -35 -12t-47 -5h-10q-19 0 -37 3q-22 4 -33 14l40 189h-93q-6 11 -8 29z M348 484h163l52 244h-162z" />
<glyph unicode="$" horiz-adv-x="958" d="M128 819q0 51 16 95.5t50.5 79t90.5 54.5t135 20v91q6 11 22 15t32.5 4t31.5 -5t21 -14v-101q47 -2 108.5 -26t110.5 -88q10 -15 16 -39.5t3 -47.5t-18 -43.5t-45 -28.5q-45 64 -93 98t-82 38v-302q69 -29 128 -60.5t101.5 -72.5t66.5 -94t24 -125q0 -46 -18 -93.5 t-57.5 -87t-100.5 -66t-144 -30.5v-91q-6 -15 -21 -21t-32.5 -6t-32.5 7t-21 20v89q-77 0 -149 35t-113 95q-10 18 -15 42t-1 47.5t18 42.5t43 28q37 -61 93 -100.5t124 -47.5v379q-62 23 -115.5 54t-93 69.5t-61.5 85t-22 101.5zM327 803q0 -41 23 -77.5t70 -58.5v262 q-19 0 -35 -11.5t-29 -29.5t-21 -40t-8 -45zM527 130q15 4 33 15t33 29.5t26.5 44t11.5 61.5q0 78 -32 117t-72 65v-332z" />
<glyph unicode="%" horiz-adv-x="1337" d="M101 742q0 75 22.5 138.5t68.5 104.5q61 55 164 55q49 0 88.5 -12t68.5 -34q52 -41 74.5 -107t22.5 -145q0 -73 -21.5 -135.5t-67.5 -103.5q-64 -57 -165 -57q-103 0 -164 55q-46 41 -68.5 104.5t-22.5 136.5zM241 20l677 1010q17 20 47 29t61.5 9t57 -10t31.5 -28 l-677 -1010q-16 -20 -45 -29t-59 -9t-56.5 10t-36.5 28zM267 742q0 -87 25.5 -144.5t63.5 -57.5q43 0 65.5 61.5t22.5 140.5q0 88 -23.5 145t-64.5 57q-40 0 -64.5 -58t-24.5 -144zM726 276q0 74 22 138t69 105q30 25 71 40t93 15q95 0 157 -49q52 -41 75.5 -107t23.5 -142 q0 -75 -22.5 -138t-69.5 -103q-30 -27 -70.5 -42.5t-93.5 -15.5q-52 0 -93 15.5t-71 42.5q-47 40 -69 103t-22 138zM892 276q0 -88 25 -145.5t64 -57.5q43 0 65 62t22 141q0 87 -23 144.5t-64 57.5t-65 -58.5t-24 -143.5z" />
<glyph unicode="&#x26;" horiz-adv-x="1281" d="M111 18v723q0 52 31 76q21 21 74 21h396q126 0 195.5 -64t69.5 -205v-302q-16 -12 -42 -15.5t-55 -3t-54 5.5t-37 13v300q0 66 -25.5 97t-92.5 31h-274v-677q-16 -10 -42 -14t-55 -3t-53 5t-36 12zM384 569q17 11 43 16t54.5 5t53 -6t36.5 -15l33 -427h240 q78 0 107.5 39.5t29.5 116.5v525q12 9 39 14.5t57 5.5t55 -4.5t37 -15.5v-509q0 -156 -80 -235t-224 -79h-359q-43 0 -64 29q-21 23 -25 66z" />
<glyph unicode="'" horiz-adv-x="350" d="M50 921q12 23 29.5 66t33 95t28 105t19.5 96q26 -2 51.5 -19t46.5 -41.5t35.5 -54t16.5 -57.5q-14 -45 -39 -92.5t-55 -92t-61 -81t-58 -56.5q-10 6 -19.5 21.5t-15.5 35t-10 38.5q-2 16 -2 29v8z" />
<glyph unicode="(" horiz-adv-x="526" d="M80 507q0 85 19.5 179t54 182.5t80 162.5t100.5 120q34 30 68 30q6 0 11 -1q40 -6 60 -29q-42 -70 -75.5 -149t-56.5 -162.5t-34.5 -167.5t-11.5 -163q0 -75 7 -153t26 -159t55 -164t92 -169q-8 -14 -25 -21t-37.5 -7t-42 7t-34.5 21q-61 51 -108 124.5t-80 159.5 t-50.5 178t-17.5 181z" />
<glyph unicode=")" horiz-adv-x="526" d="M50 -136q57 86 91.5 169t55 164t27.5 159t7 153q0 158 -45.5 329.5t-133.5 312.5q23 23 62 29q6 1 11 1q34 0 69 -30q55 -46 101 -120t79 -162.5t52.5 -182.5t19.5 -179q0 -89 -17 -181t-50.5 -178t-80.5 -159.5t-108 -124.5q-16 -14 -36 -21t-40.5 -7t-38 7t-25.5 21z " />
<glyph unicode="*" horiz-adv-x="721" d="M80 996q0 41 27 78l198 -50l-154 160q20 41 57 58q27 13 60 13q11 0 23 -2l67 -205l61 207q12 1 22 1q39 0 66 -17q34 -22 49 -57l-147 -158l201 50q28 -35 31 -78v-6q0 -40 -34 -75l-198 50l147 -158q-19 -47 -58 -64q-23 -10 -46 -10q-16 0 -33 5l-61 201l-69 -205 q-9 -1 -18 -1q-43 0 -67 17q-29 20 -53 55l154 160l-196 -44q-29 34 -29 75z" />
<glyph unicode="+" horiz-adv-x="581" d="M28 525q0 22 4 41.5t12 31.5h172v182q11 9 31 14t41.5 5t42.5 -5t33 -14v-182h169q8 -12 12.5 -31.5t4.5 -41.5t-4.5 -43.5t-12.5 -33.5h-169v-179q-10 -10 -30 -14t-42.5 -4t-42.5 5t-33 13v179h-172q-8 12 -12 33.5t-4 43.5z" />
<glyph unicode="," horiz-adv-x="340" d="M0 -128q10 20 26.5 64t32.5 95.5t30 106.5t21 98q26 -2 51 -18.5t46.5 -41t35.5 -55t16 -59.5q-17 -46 -43.5 -95.5t-57 -93t-60 -79.5t-51.5 -53q-10 6 -19.5 21t-15.5 35.5t-10 39.5q-3 13 -3 24q0 6 1 11z" />
<glyph unicode="-" horiz-adv-x="581" d="M49 521v6q0 21 3 41q4 24 14 36h449q10 -12 15.5 -35.5t5.5 -47.5t-6.5 -45.5t-14.5 -33.5h-449q-8 12 -12 33.5t-5 45.5z" />
<glyph unicode="." horiz-adv-x="354" d="M30 95q0 53 36.5 89.5t88.5 36.5q53 0 90.5 -36.5t37.5 -89.5q0 -52 -37.5 -90t-90.5 -38q-52 0 -88.5 38t-36.5 90z" />
<glyph unicode="/" horiz-adv-x="683" d="M20 20l489 1012q14 12 35 18t44.5 6t43.5 -6t30 -18l-488 -1012q-15 -12 -37 -16t-44.5 -4t-42.5 5t-30 15z" />
<glyph unicode="0" horiz-adv-x="927" d="M80 530q0 116 22.5 217.5t69 177t118.5 117t173 41.5q104 0 177 -40.5t118.5 -114t66.5 -176t21 -225.5q0 -121 -22 -223.5t-69.5 -176t-120 -114t-171.5 -40.5q-97 0 -170 40.5t-119.5 114t-70 176t-23.5 226.5zM336 527q0 -121 11 -196.5t29 -117t42 -55.5t45 -14 q23 0 46.5 17t41.5 60.5t29 119t11 189.5q0 109 -10 182t-28 117.5t-41.5 64t-48.5 19.5q-24 0 -47.5 -17.5t-41.5 -61t-28 -118.5t-10 -189z" />
<glyph unicode="1" horiz-adv-x="927" d="M126 581q-1 10 -1 20q0 17 3 34q5 26 21 44q43 21 95.5 62.5t101 90t89 97t59.5 85.5q14 26 52.5 39t81.5 14h6q39 0 72 -12q37 -13 47 -41v-973q-15 -31 -50 -45q-33 -13 -69 -13h-5q-40 1 -75.5 15t-53.5 43v801q-19 -45 -56 -100t-83.5 -104.5t-95.5 -89t-92 -53.5 q-20 12 -32 35t-15 51z" />
<glyph unicode="2" horiz-adv-x="927" d="M83 857q-1 9 -1 17q0 14 3 29q5 22 15 37q90 132 329 132q100 0 174.5 -31t125.5 -84t75.5 -120t24.5 -137q0 -153 -102.5 -293t-287.5 -233h351q18 -16 26.5 -41t7.5 -52t-9.5 -49t-24.5 -32h-642q-15 0 -25 10t-18.5 24.5t-12.5 29.5t-4 25q-2 19 19.5 48t45.5 45 l143 90q74 47 135 104.5t99.5 131.5t38.5 173q0 110 -61 165.5t-144 55.5q-65 0 -124 -31t-94 -93q-29 15 -44.5 35.5t-18.5 43.5z" />
<glyph unicode="3" horiz-adv-x="927" d="M89 139q-2 10 -2 21q0 12 3 25q5 24 20.5 43.5t39.5 28.5q30 -44 88 -75.5t129 -31.5q41 0 81.5 10t71.5 30.5t51.5 53t20.5 77.5q0 33 -16.5 62t-42.5 49t-61.5 31t-74.5 11h-76q-23 13 -32 33t-9 42.5t10 44t31 33.5h76q35 0 68.5 8.5t59.5 27t42.5 45t16.5 58.5 q0 64 -52 105.5t-145 41.5q-79 0 -136.5 -35t-90.5 -85q-34 12 -48.5 33t-17.5 43.5t4 45t18 38.5q22 30 60.5 53.5t85 38.5t97.5 23t97 8q185 0 282.5 -72.5t97.5 -186.5q0 -53 -20.5 -98.5t-53 -80t-73.5 -58t-83 -31.5q38 -9 79 -28.5t75.5 -50t57 -75.5t22.5 -107 q0 -73 -28.5 -130t-80.5 -95t-121.5 -58.5t-153.5 -20.5q-46 0 -99 6t-101.5 19.5t-88 35.5t-62.5 52q-12 19 -16 42z" />
<glyph unicode="4" horiz-adv-x="927" d="M47 252q-1 9 -1 20q0 17 4 36q8 29 27 50q43 50 92.5 122.5t96 161t85 185t61.5 191.5q14 28 53 41q37 12 78 12h6q45 -1 80.5 -14t39.5 -39q-12 -83 -53.5 -178.5t-98.5 -188t-121.5 -171t-122.5 -128.5h263v197q17 29 51 43q32 13 64 13h5q35 -1 67.5 -15t50.5 -41 v-197h69q18 -13 28.5 -36.5t10.5 -47.5t-10.5 -46.5t-28.5 -35.5h-69v-157q-16 -23 -50.5 -35t-73 -12t-71 12t-43.5 35v157h-420q-31 0 -47.5 19.5t-21.5 46.5z" />
<glyph unicode="5" horiz-adv-x="927" d="M91 137q-2 12 -2 23.5t2 23.5q4 23 18.5 43.5t39.5 29.5q46 -62 106.5 -84.5t125.5 -22.5q41 0 79.5 12t67.5 36.5t47.5 61t18.5 85.5q0 85 -62 140t-159 55q-52 0 -111 -22.5t-90 -55.5q-16 -16 -37 -11t-17 31l89 540q4 17 10 25.5t29 8.5h504q20 -10 31.5 -35 t11.5 -53t-11.5 -53t-31.5 -37h-316l-35 -203q31 14 81 14q67 0 132 -22.5t115.5 -65t82.5 -107t32 -149.5q0 -96 -35 -163.5t-91.5 -111t-130.5 -65t-153 -21.5q-47 0 -95.5 6t-93 19.5t-80 35.5t-58.5 52q-10 17 -14 40z" />
<glyph unicode="6" horiz-adv-x="927" d="M82 363v264q0 109 34.5 192t90 141t128 87t146.5 29q116 0 190 -30t121 -93q22 -31 22 -68q0 -10 -2 -21q-8 -49 -65 -71q-40 52 -93 82.5t-123 30.5q-90 0 -150.5 -71t-60.5 -192v-45q31 41 86 67t114 26q63 0 122 -20.5t104.5 -62t72.5 -106t27 -154.5 q0 -172 -101 -272.5t-272 -100.5q-77 0 -148 22.5t-124 69.5t-86 120.5t-33 175.5zM320 331q0 -91 45.5 -140t103.5 -49q60 0 102.5 53t42.5 136q0 93 -39.5 147t-105.5 54q-58 0 -103.5 -54t-45.5 -147z" />
<glyph unicode="7" horiz-adv-x="927" d="M54 970q0 28 10 52t33 34h677q39 0 62 -18t31 -44q5 -15 5 -31q0 -10 -2 -20q-5 -26 -19 -43q-67 -79 -128 -186.5t-106.5 -226t-71.5 -238t-26 -220.5q-14 -25 -50.5 -37t-77.5 -12t-76.5 12t-47.5 37q0 85 27.5 202t76.5 238t113.5 230.5t137.5 178.5h-525 q-23 14 -33 39t-10 53z" />
<glyph unicode="8" horiz-adv-x="927" d="M62 290q0 60 31.5 117t80.5 92q59 43 128 56q-77 21 -130 68q-40 34 -66 76t-26 94q0 68 24 118t63 85q56 46 131.5 64.5t167.5 18.5q83 0 155 -16.5t124 -56.5q47 -35 74.5 -86.5t27.5 -126.5q0 -59 -25.5 -102t-70.5 -76q-50 -43 -119 -60q42 -10 76.5 -27t63.5 -39 q41 -35 67 -88t26 -111q0 -79 -31 -138t-85 -98q-54 -40 -127 -58.5t-156 -18.5q-85 0 -160 21.5t-132 61.5q-53 39 -82.5 96t-29.5 134zM306 302q0 -35 15 -82.5t57 -77.5q33 -24 86 -24t87 24q43 30 57 77.5t14 82.5q0 19 -3 41t-12 46.5t-24.5 45.5t-38.5 37 q-33 23 -80 23q-53 0 -81 -21q-25 -16 -39 -37t-23 -45.5t-12 -47.5t-3 -42zM312 780q0 -28 16.5 -69.5t58.5 -66.5q16 -9 34.5 -14t42.5 -5q40 0 75 19q44 25 60.5 66.5t16.5 69.5q0 29 -17.5 68.5t-57.5 62.5q-16 10 -34.5 15t-42.5 5t-42.5 -5t-34.5 -15 q-41 -25 -58 -63.5t-17 -67.5z" />
<glyph unicode="9" horiz-adv-x="927" d="M82 702q0 172 100.5 272t272.5 100q76 0 146.5 -22t125.5 -69.5t87 -120.5t32 -175v-263q0 -110 -34.5 -194t-91 -140.5t-127.5 -86.5t-146 -30q-117 0 -190.5 31t-119.5 93q-24 32 -24 70q0 10 2 20q8 49 66 70q39 -52 93 -82.5t124 -30.5q88 0 149.5 71t61.5 193v44 q-34 -40 -89 -67t-111 -27q-63 0 -122 20.5t-104.5 62t-73 106.5t-27.5 155zM316 720q0 -93 39 -147t104 -54q57 0 103.5 54t46.5 147q0 91 -45.5 140t-104.5 49q-61 0 -102 -53t-41 -136z" />
<glyph unicode=":" horiz-adv-x="395" d="M40 95q0 53 36.5 89.5t88.5 36.5q53 0 90.5 -36.5t37.5 -89.5q0 -52 -37.5 -90t-90.5 -38q-52 0 -88.5 38t-36.5 90zM40 718q0 52 36.5 88.5t88.5 36.5q53 0 90.5 -36.5t37.5 -88.5q0 -53 -37.5 -89.5t-90.5 -36.5q-52 0 -88.5 36.5t-36.5 89.5z" />
<glyph unicode=";" horiz-adv-x="410" d="M40 -128q10 20 26 64t32.5 95.5t30.5 106.5t20 98q26 -2 51.5 -18.5t46.5 -41t35.5 -55t16.5 -59.5q-18 -46 -44 -95.5t-57 -93t-60 -79.5t-52 -53q-10 6 -19.5 21t-15 35.5t-9.5 39.5q-3 13 -3 24q0 6 1 11zM57 718q0 52 37 88.5t89 36.5q54 0 90 -36.5t36 -88.5 q0 -53 -36 -89.5t-90 -36.5q-52 0 -89 36.5t-37 89.5z" />
<glyph unicode="&#x3c;" horiz-adv-x="581" d="M56 513q0 31 10 69.5t47 63.5l340 246q33 -16 49 -66q9 -30 9 -62q0 -20 -4 -40l-343 -205l343 -203q5 -18 5 -37q0 -7 -1 -13q-2 -26 -10.5 -49.5t-21.5 -43t-26 -27.5l-340 237q-39 27 -48 64t-9 66z" />
<glyph unicode="=" horiz-adv-x="581" d="M49 359v6q0 21 3 41q4 24 14 36h449q10 -12 15.5 -35.5t5.5 -47.5t-6.5 -45.5t-14.5 -33.5h-449q-8 12 -12 33.5t-5 45.5zM49 684v6q0 21 3 41q4 23 14 35h449q10 -12 15.5 -35t5.5 -47.5t-6.5 -45.5t-14.5 -34h-449q-8 13 -12 34t-5 46z" />
<glyph unicode="&#x3e;" horiz-adv-x="581" d="M62 767.5q0 25.5 8.5 50.5t20.5 45.5t31 28.5l340 -246q37 -25 47 -63.5t10 -69.5q0 -29 -9 -66t-48 -64l-340 -237q-29 20 -50 70q-11 27 -11 56q0 22 7 44l343 203l-343 205q-6 18 -6 43.5z" />
<glyph unicode="?" horiz-adv-x="923" d="M86 946q15 66 61.5 119.5t120.5 87t170 33.5q70 0 133 -21.5t110 -59t74 -91t27 -118.5q0 -109 -44.5 -182t-131.5 -140l-63 -52q-33 -27 -59.5 -57.5t-43.5 -67t-17 -78.5q-16 -27 -51.5 -28t-53.5 28q-5 28 -5 63v12q1 42 12 84.5t33 81t57 67.5q54 46 86 107t32 134 q0 28 -7 55.5t-21.5 50t-36.5 36.5t-53 14q-51 0 -78 -31.5t-37 -74.5q-5 -26 -5 -53q0 -18 3 -37q6 -45 22 -72q-41 -28 -79.5 -28t-68.5 14t-51.5 36.5t-27.5 38.5q-14 38 -14 76q0 26 7 53zM245 95q0 53 37.5 89.5t89.5 36.5q53 0 89.5 -36.5t36.5 -89.5q0 -52 -36.5 -90 t-89.5 -38q-52 0 -89.5 38t-37.5 90z" />
<glyph unicode="@" horiz-adv-x="1867" d="M104 424q0 261 121 484q123 230 345 357t470 127q200 0 359 -78q174 -86 261 -251.5t87 -348.5q0 -168 -65 -327q-69 -171 -191 -269q-128 -103 -290 -103q-152 0 -179 120q16 63 55 103q-243 -224 -400 -224q-84 0 -134 76q-45 66 -45 155q0 154 103 341q85 155 215 293 q106 72 175 72q30 0 52 -12q139 0 200 -84l8 95l135 -23l-100 -389q-71 -278 -71 -335q0 -19 5 -29q-6 -20 -6 -32q0 -28 24 -28q17 0 45 13q20 -9 40 -9q73 0 150 120q91 39 143 155q72 162 72 339q-33 139 -104 306q-90 132 -243 209q-148 76 -311 76q-230 -64 -388 -159 q-221 -75 -262 -269q-155 -214 -155 -407q0 -35 5 -68q-1 -16 -1 -32q0 -217 104 -372q60 -215 269 -254q139 -83 356 -110q55 -7 100 -7q229 0 391 149q209 104 254 396l123 -36q-94 -285 -327 -447q-229 -160 -532 -160q-238 0 -435 109q-203 113 -315.5 317.5 t-112.5 450.5zM646 290q19 -29 30 -94q29 24 49 24q22 0 35 -30q111 56 246 190q39 87 119 143q45 144 45 242q0 60 -32 99q-16 22 -43 22q-28 0 -65 -23h-8q-75 0 -127 -134q-110 -13 -190 -209q-59 -144 -59 -230z" />
<glyph unicode="A" horiz-adv-x="1464" d="M16 0v37q84 14 95 66q63 19 126 165l472 1105l43 -27l459 -1090q47 -112 104 -137q30 -76 126 -82v-37h-529l38 32q72 31 98 87q0 43 -39 137l-81 193h-520l-91 -211q-34 -79 -34 -117q0 -73 113 -81l43 -40h-423zM439 523l424 16l-174 522z" />
<glyph unicode="B" horiz-adv-x="1352" d="M79 63l5 -26q85 0 121 53q9 53 23 148v867q0 125 -29 157q-39 44 -115 44l43 -7l-48 39l535 4h14q323 0 461 -137q90 -90 90 -221q0 -221 -242 -299q139 -30 208 -95q96 -91 96 -223q0 -112 -64 -198.5t-172 -125.5q-115 -43 -312 -43h-26l-572 8zM396 158 q137 -88 248 -88q150 0 250 64q118 75 118 216q0 187 -181 265q-96 41 -238 41q-127 0 -175 -9zM418 739h8q64 0 168 29q67 -11 123 -11q160 0 217 94q38 65 38 141q0 144 -122 220q-103 64 -254 64q-99 0 -178 -22v-515z" />
<glyph unicode="C" horiz-adv-x="1352" d="M73 650q0 197 85 362q90 173 254 269q157 92 344 92q147 0 287 -71q43 -22 60 -22q23 5 23 31t-25 75l120 -13l30 -456l-63 2q-83 383 -416 383q-292 0 -411 -284q-62 -150 -62 -370q0 -378 235 -520q87 -27 211 -27q30 0 63 2q54 -18 105 -18q81 0 149 48 q78 113 189 202l72 -18q-236 -348 -596 -348q-334 0 -517 248q-137 184 -137 433z" />
<glyph unicode="D" horiz-adv-x="1464" d="M63 1362l518 -20q293 -10 403 -48q196 -66 303 -240q100 -161 100 -376q0 -281 -170 -468q-191 -210 -561 -210h-21l-532 8l-16 -8l-2 37q85 0 121 54q22 33 22 147v867q0 126 -101 138q11 20 11 31q0 15 -19 15q-12 0 -32 -6zM412 1228l6 -1131q14 1 43 1q57 0 173 -3 h18q244 0 379 158q130 153 130 415q0 265 -147 409q-163 159 -388 159q-29 2 -63 2q-67 0 -151 -10z" />
<glyph unicode="E" horiz-adv-x="1238" d="M71 1299v39l997 -11l15 -294l-69 5q-16 87 -32 126q-32 39 -206 87h-372l24 -483l283 -45q190 0 190 103q0 15 -6 29l71 32l32 -356l-87 -32q-3 50 -17 77q-39 75 -154 75q-17 0 -29 -1l-291 -24l-4 -418v-41q0 -33 1 -35q36 -25 58 -37q11 -6 26 -6q24 0 61 14h182 q56 8 94 8q37 0 57 -8q71 24 124 33q42 62 66 181l95 -16l-95 -317h-990l-16 79l2 -42q47 0 85 82q18 -16 31 -16q33 0 33 164v10l-4 832q-28 118 -28 147q0 8 2 10q-35 40 -119 40z" />
<glyph unicode="F" horiz-adv-x="1127" d="M32 8l39 55l9 -26q55 50 102 50q0 63 43 151v867q0 102 -13 134q-27 67 -132 67l-9 -23l-8 63l951 -8l30 -291l-78 -2q-24 143 -119 191q-31 -16 -150 -16h-285l16 -412l231 -66q70 34 132 46q32 39 44 138h36v-455h-36q-2 132 -74 171q-32 17 -102 17l-223 -41l-21 -380 q19 -52 19 -92q0 -23 -6 -43q4 -11 18 -11q18 0 53 19q63 -40 61 -74h49v-37z" />
<glyph unicode="G" horiz-adv-x="1464" d="M63 643q-1 16 -1 32q0 186 86 307q163 396 499 396q61 0 127 -13q130 0 303 -64q57 -21 74 -21q29 0 29 25q0 14 -8 33l79 8l20 -405l-83 9q-4 150 -87 230q-95 67 -218 67q-51 0 -107 -11q-67 25 -126 25q-159 0 -246 -192q-113 -146 -113 -384q0 -174 63 -327 q113 -120 208 -184l222 -55q14 -1 28 -1q123 0 194 64l78 309q0 75 -6 102l-96 41q1 8 1 14q0 41 -33 49l32 79l444 -8l-48 -95l25 14q-52 -65 -76 -65q-14 0 -20 20q-17 -24 -17 -74q0 -35 9 -85l-103 -380q-111 -190 -412 -214q-432 32 -602 309q-109 177 -119 445z" />
<glyph unicode="H" horiz-adv-x="1464" d="M27 0v37l21 42q26 -8 45 -8q39 0 50 32q55 47 71 158l5 843v14q0 95 -13 121q-48 4 -48 20q-79 0 -84 47l-42 -55v103l570 -12v-36h-49q-52 0 -85 -28q-22 -19 -55 -74q-4 -23 -4 -100l42 -336h571l11 336v29q0 73 -13 106q-62 12 -132 67h-47v36h574v-36h-48 q-81 0 -139 -118q-1 -1 -1 -3q0 -15 24 -92l-28 -855v-29q0 -72 13 -90q49 -28 49 -46q0 -7 -9 -13q43 -23 91 -23h48v-37h-552l-22 37l46 3h10q76 0 111 45q25 32 25 153v408h-624v-408q0 -102 35 -135q5 -36 60 -36q19 0 42 4l56 -34v-45z" />
<glyph unicode="I" horiz-adv-x="675" d="M40 4l3 33h47q83 0 92 66q40 44 53 135v867q0 102 -13 134q-10 26 -68 28q-26 21 -67 32l-43 12v47l578 8l-4 -60h-49q-58 -35 -86 -86q-47 -24 -58 -115l19 -859q22 -58 22 -103q0 -17 -3 -32q24 -48 106 -74l41 42l8 -79z" />
<glyph unicode="J" horiz-adv-x="789" d="M56 159q0 50 40 50q10 0 23 -3q20 6 37 6q42 0 65 -33q15 -21 44 -68q15 -17 24 -17q8 0 12 13q51 0 55 87l39 911q1 18 1 33q0 67 -14 101q-49 36 -133 44l-47 23l-12 76h594l-7 -76h-48q-80 -15 -120 -49q-24 -30 -24 -152v-657q0 -282 -141 -420q-88 -59 -202 -59 q-77 0 -134 37q-49 53 -49 121q-3 19 -3 32z" />
<glyph unicode="K" horiz-adv-x="1464" d="M46 1298l2 52l566 -4l-4 -55l-44 -20q-9 2 -18 2q-40 0 -104 -89q-16 -10 -16 -87v-411q38 37 122 154q309 243 357 332q8 44 16 71q-23 12 -64 48l-31 28l4 47l483 4l2 -72q-74 -11 -173 -59q-39 -39 -114 -122q-96 -79 -171 -167l-182 -213l436 -492q179 -202 380 -216 v-37h-639v37q108 0 108 62q0 43 -71 113l-463 458v-432q0 -102 13 -135q24 -42 82 -42q13 0 27 2l56 -7l4 -56h-562l7 36l24 23q91 8 135 26q24 31 24 153v867q-12 99 -13 136q-25 9 -67 38q-22 16 -65 27h-47z" />
<glyph unicode="L" horiz-adv-x="1238" d="M28 1346h621l-7 -95q-68 19 -113 19q-72 0 -93 -44q-9 -18 -16 -152l-44 -844q16 -68 60 -112q27 -23 83 -31l190 16q131 -4 196 -13q179 43 220 231l95 -44l-144 -285h-1039v37h50q85 0 122 55q21 32 21 147v866q0 126 -32 174q-48 2 -99 8l-67 8zM1133 55z" />
<glyph unicode="M" horiz-adv-x="1802" d="M36 1350l384 8l435 -1041l527 1049l364 -20l-8 -43l-24 -1q-86 -23 -122 -52q-22 -31 -22 -144v-877q0 -124 28 -155q37 -42 97 -42h55l-8 -44l-542 12v44l47 15q26 -9 48 -9q58 0 76 66q9 32 9 113v897l-497 -1094l-55 -16l-468 1041l-49 -828q18 -114 27 -155 q36 -41 115 -41h48v-37h-450l8 52l52 -4q9 -2 18 -2q40 0 57 45q20 28 38 142l-26 876q6 76 6 114v16q-38 52 -164 56z" />
<glyph unicode="N" horiz-adv-x="1464" d="M4 1311l8 35l317 12l817 -1026v774q-17 110 -27 154h-3q-41 0 -110 23h-56l6 55h468l2 -59h-44q-77 0 -127 -29q-21 -31 -21 -144v-1132h-36l-885 1081v-826q0 -125 27 -155q34 -38 84 -38h8l19 4l-11 -32l-404 -12l39 48l7 -11q86 0 122 51q22 32 22 145v933 q-51 60 -78 81q-38 30 -99 50q-28 9 -45 18z" />
<glyph unicode="O" horiz-adv-x="1464" d="M71 676q0 320 218 522q189 175 453 175q292 0 472 -203q172 -195 172 -491q0 -306 -175 -503q-183 -207 -485 -207q-304 0 -483 204q-172 195 -172 503zM298 672q0 -228 11 -229q5 0 12 44q205 -416 349 -416q14 0 27 4q22 -4 44 -4q234 0 419 436q0 -37 -1 -37v174 q0 176 -18 261q-11 56 -54 149q-99 216 -322 216q-25 0 -52 -3q-28 4 -54 4q-134 0 -225 -112q-136 -166 -136 -487z" />
<glyph unicode="P" horiz-adv-x="1127" d="M34 0v37h50q85 0 122 55q20 31 20 146v867q0 127 -27 157q-39 44 -115 44h-50v36h492q158 0 251 -26q125 -36 200 -125q79 -93 79 -220q0 -181 -119 -279q-110 -91 -295 -91q-98 0 -226 28v-391q0 -126 28 -158q38 -43 113 -43h52v-37h-575zM416 685q105 -20 162 -20 q114 0 185 88q68 83 68 198q0 197 -137 275q-64 36 -149 36q-50 0 -129 -19v-558z" />
<glyph unicode="Q" horiz-adv-x="1464" d="M71 674q0 306 179 500q186 199 489 199q295 0 476 -207q172 -197 172 -496q0 -241 -132 -426q-133 -191 -362 -259q189 -327 485 -350v-32q-300 11 -586 193q-140 89 -241 189q-144 59 -225 122q-255 200 -255 567zM298 674q0 -326 141 -502q123 -49 288 -135 q230 0 343 199q90 158 90 409q0 450 -222 593q-94 59 -211 59q-233 0 -343 -206q-86 -161 -86 -417z" />
<glyph unicode="R" horiz-adv-x="1352" d="M59 -4l32 40l-6 1q85 0 122 55q21 32 21 146v867q0 128 -28 157q-20 22 -38 33l4 -4l-31 59l389 -8q198 -4 263 -17q132 -28 210 -110q85 -88 85 -218q0 -270 -331 -344l278 -385q84 -117 142 -160q78 -58 199 -71v-37h-358l-455 628q-50 -2 -82 -2q-27 0 -58 2v-390 q0 -126 28 -158q38 -43 112 -43h53v-37zM401 1237l39 -524l-11 -35q18 -1 27 -1q162 0 265 65q122 78 122 230q0 132 -77.5 207.5t-209.5 75.5q-57 0 -155 -18z" />
<glyph unicode="S" horiz-adv-x="1127" d="M123 1028q0 160 119 259q110 94 274 94q108 0 226 -52q32 -14 53 -14q16 0 25 8q15 -5 26 -5q28 0 33 32l60 -4l-4 -396l-52 32q-28 185 -202 242q-43 47 -97 47q-35 0 -73 -20q-35 21 -66 21q-47 0 -89 -44q-76 -42 -76 -132q0 -60 43 -112q61 -73 292 -198 q165 -89 204 -116q196 -134 196 -320q0 -173 -128 -277q-118 -96 -295 -96q-73 0 -110 9l-137 34q-49 12 -112 33q-50 0 -55 -49l-43 8l4 392l27 12q29 -107 65 -174q47 -90 144 -140q90 -48 196 -48q109 0 183 55q85 60 85 165q0 109 -112 194q-70 53 -229 140 q-154 84 -227 140q-148 117 -148 280z" />
<glyph unicode="T" horiz-adv-x="1238" d="M59 1156l18 186h1096l15 -209h-67q4 -5 5 -6l1 1q-1 6 -6 18q-72 66 -216 112l-188 -26l-1 -999q-11 -43 -11 -75q0 -58 37 -80q38 -27 116 -41l13 -1l8 -32l-527 -8l4 44l27 -3q85 0 121 51q31 18 31 73q0 31 -9 72l-15 1003l-143 3h-142q-101 -33 -101 -79q0 -6 2 -12z " />
<glyph unicode="U" horiz-adv-x="1464" d="M12 1315l16 79h570l-7 -88h-51q-85 -11 -119 -53q-61 -25 -73 -136l-3 -594q23 -238 117 -340q73 -105 233 -105q17 0 34 1q15 -1 30 -1q111 0 195 53q115 43 143 154q40 71 63 285v535q0 126 -51 154q-12 27 -62 27q-16 0 -37 -3h-48l16 99l463 -16l1 -60h-50 q-78 0 -109 -59q-12 -29 -12 -142v-555q-22 -186 -51 -281q-94 -301 -487 -301q-392 0 -495 281q-32 243 -32 331v525q0 104 -22 143q-32 58 -123 58z" />
<glyph unicode="V" horiz-adv-x="1464" d="M18 1306v36h548v-36q-148 -14 -148 -90q0 -50 45 -155l342 -787l317 777q46 114 46 160q0 70 -126 92l-16 3v36h413v-36q-72 -13 -107 -46q-52 -46 -94 -148l-468 -1143h-36l-503 1158q-39 89 -55 109q-49 61 -158 70z" />
<glyph unicode="W" horiz-adv-x="1913" d="M111 1295l8 51l384 -8l33 -36l-37 -27q-31 7 -43 7q-52 -1 -52 -61q0 -22 43 -160l234 -740l182 629v201q-40 117 -127 145q-3 3 12 19l4 47h396v-55l-4 -44q-27 8 -50 8q-58 0 -84 -51q4 -52 91 -182l222 -741l257 760q16 48 44 159q0 48 -20 55q-35 12 -56 4l-8 79h341 l-12 -55q-59 -32 -83 -91q-19 -20 -63 -159l-353 -1085l-84 1l-264 863l-346 -863h-35l-399 1115q-42 117 -57 148q-32 67 -74 67z" />
<glyph unicode="X" horiz-adv-x="1464" d="M15 0v37q49 5 87 20q124 53 244 203l316 400l-264 387q-88 129 -147 179q-90 76 -209 80v36h620v-36q-137 -5 -137 -76q0 -36 47 -107l206 -308l239 302q60 76 60 114q0 48 -49 66q-22 8 -94 9v36h476v-36q-58 -3 -92 -18q-96 -41 -224 -204l-266 -341l288 -429 q97 -146 131 -181q87 -90 193 -96v-37h-576v37q45 1 66 6q67 15 67 70q0 23 -9 45q-5 12 -54 88l-228 344l-281 -360q-63 -81 -63 -117q0 -71 129 -76v-37h-476z" />
<glyph unicode="Y" horiz-adv-x="1464" d="M48 1303v39h419l8 -23l4 -4q21 -9 -14 -29q-42 -24 -42 -67q0 -20 60 -129l222 -401l253 388q99 91 103 127q-4 55 -43 75q-14 27 -20 28l-4 35h356l8 -35q-46 -1 -130 -89q-48 -50 -100 -139l-300 -509l-24 -337q24 -118 28 -155q37 -41 118 -41h44v-37h-570v37h47 q85 0 121 51q-10 27 -26 138l32 313l-352 574q-50 80 -77 110q-32 36 -109 73q-9 5 -12 7zM1335 1307z" />
<glyph unicode="Z" horiz-adv-x="1238" d="M10 -8v37l841 1214h-407q-183 0 -206 -71q-4 -67 -28 -103l-67 8v277h946l-824 -1223h567q44 -11 77 -11q63 0 89 38q59 44 75 163h95v-317z" />
<glyph unicode="[" horiz-adv-x="712" d="M111 -290v1681q0 118 81 118h449q11 -8 16 -31t5 -47t-5 -46.5t-16 -30.5h-275q-21 0 -21 -38v-1529q0 -38 21 -38h275q11 -8 16 -30.5t5 -47.5t-5 -46.5t-16 -30.5h-449q-43 0 -62 28t-19 88z" />
<glyph unicode="\" horiz-adv-x="792" d="M20 1128q-5 10 -5 16t5 8q4 2 9 2q8 0 18 -5l81 -44q21 -12 32 -35l570 -1206q3 -7 3 -12q0 -4 -2 -8q-3 -5 -9 -5q-3 0 -6 1l-98 44q-20 8 -30 29z" />
<glyph unicode="]" horiz-adv-x="712" d="M50 -329q0 25 5 47.5t18 30.5h273q23 0 23 38v1529q0 38 -23 38h-273q-13 8 -18 30.5t-5 46.5t5 47t18 31h448q81 0 81 -118v-1681q0 -60 -19.5 -88t-61.5 -28h-448q-13 9 -18 30.5t-5 46.5z" />
<glyph unicode="^" horiz-adv-x="780" d="M27 432l314 694h105l314 -694h-158l-206 503l-230 -503h-139z" />
<glyph unicode="_" horiz-adv-x="1021" d="M-8 -127h1034l6 -128h-1032z" />
<glyph unicode="`" horiz-adv-x="675" d="M117 1376h221l105 -341l-55 -9z" />
<glyph unicode="a" horiz-adv-x="899" d="M72 215q0 140 172 241q101 60 333 145v36q0 236 -168 236q-53 0 -93 -29q-46 -31 -44 -82l2 -57v-6q0 -89 -84 -89q-83 0 -83 96q0 112 116 175q95 53 216 53q226 0 284 -137q18 -43 18 -174v-308q0 -179 21 -198q11 -10 26 -10q16 0 28 7q20 12 80 72v-55 q-111 -149 -212 -149q-105 0 -107 149q-140 -109 -175 -125q-54 -25 -114 -25q-99 0 -158 69q-58 65 -58 165zM239 261q0 -64 37 -113q41 -52 103 -52q75 0 198 99v346q-146 -59 -193 -85q-145 -81 -145 -195z" />
<glyph unicode="b" d="M-4 1297l272 111h45v-658q132 184 284 184q166 0 263 -146q84 -126 84 -300q0 -241 -160 -389q-138 -127 -307 -127q-157 0 -328 115v940q0 213 -30 238q-16 13 -40 13q-28 0 -69 -16zM313 145q102 -100 215 -100q123 0 192 139q53 110 53 248q0 135 -57 237 q-71 124 -197 124q-53 0 -105 -27q-40 -20 -101 -79v-542z" />
<glyph unicode="c" horiz-adv-x="899" d="M69 452q0 205 112 339q120 143 321 143q105 0 198 -56q108 -64 108 -162q0 -84 -92 -84q-60 0 -88 37q-7 9 -23 81q-14 64 -43 90.5t-93 26.5q-99 0 -159 -73q-80 -97 -80 -256q0 -154 69 -272q82 -139 226 -139q96 0 174 66q54 47 106 165l29 -13q-32 -157 -125 -258 q-105 -115 -256 -115q-181 0 -289 155q-95 136 -95 325z" />
<glyph unicode="d" d="M67 416q0 199 118 352q128 167 321 167q120 0 198 -77v168q0 214 -31 239q-16 13 -39 13q-26 0 -69 -16l-13 35l271 111h44v-1049q0 -216 32 -243q16 -14 38 -14q26 0 71 17l11 -35l-270 -112h-45v130q-124 -130 -266 -130q-169 0 -275 142q-96 129 -96 302zM248 494 q0 -151 64 -269q77 -144 218 -144q90 0 174 90v468q0 141 -114 206q-48 28 -96 28q-87 0 -155 -78q-91 -103 -91 -301z" />
<glyph unicode="e" horiz-adv-x="899" d="M75 442q0 213 100 345q111 148 319 148q160 0 255 -106q93 -102 93 -264h-626q-1 -168 78 -290q92 -141 252 -141q185 0 266 216l30 -19q-22 -149 -120 -250q-105 -109 -251 -109q-187 0 -297 146q-99 131 -99 324zM216 623h420q-5 87 -21 122q-53 119 -176 119 q-96 0 -158 -75q-55 -66 -65 -166z" />
<glyph unicode="f" horiz-adv-x="675" d="M78 836v71h176v59q0 268 178 382q89 58 201 58q104 0 191 -68q57 -44 57 -100q0 -29 -25.5 -55.5t-55.5 -26.5q-17 0 -109 89.5t-137 89.5q-96 0 -122 -99q-14 -52 -14 -264v-65h233v-71h-233v-596q0 -127 28 -161q36 -43 98 -43h82v-36h-542v36h41q91 0 118 73 q11 33 11 131v596h-176z" />
<glyph unicode="g" d="M60 -248q0 49 81 149q7 10 101 107q-94 56 -94 110q0 80 158 213q-172 84 -172 274q0 151 107 242q100 87 254 87q130 0 225 -64h192q42 0 49 -3q16 -7 16 -39q0 -38 -15 -44q-8 -3 -50 -3h-118q55 -71 55 -182q0 -144 -109 -229q-100 -78 -248 -78q-67 0 -138 20 q-74 -64 -74 -114q0 -44 80 -55q29 -4 139 -7q205 -5 264 -14q89 -13 143 -64q59 -55 59 -141q0 -112 -105 -210q-154 -145 -403 -145q-192 0 -322 87q-75 48 -75 103zM202 -174q0 -48 57 -83q99 -62 286 -62q122 0 217 39q131 53 131 158q0 69 -102 89q-33 7 -152 10 q-210 6 -343 23q-94 -102 -94 -174zM306 648q0 -156 67 -242q52 -65 131 -65q172 0 172 233q0 158 -68 247q-51 65 -130 65q-91 0 -135 -77q-37 -63 -37 -161z" />
<glyph unicode="h" d="M13 1297l271 111h46v-664q82 91 133 128q84 62 170 62q163 0 214 -177q19 -64 19 -231v-321q0 -85 14 -118q22 -51 121 -51v-36h-446v36h21q104 0 123 76q3 12 3 93v321q0 112 -4 141q-20 147 -142 147q-105 0 -226 -130v-479q0 -69 3 -87q13 -82 143 -82v-36h-449v36 q59 0 95 18q43 23 43 151v821q0 214 -29 239q-15 13 -42 13q-21 0 -67 -16z" />
<glyph unicode="i" horiz-adv-x="563" d="M59 823l274 111h43v-729q0 -128 50 -155q24 -14 88 -14v-36h-441v36q101 0 126 55q13 29 13 114v349q0 149 -9 191q-12 57 -62 57q-28 0 -68 -15zM193 1308q0 42 29 71t72 29q42 0 71 -29.5t29 -70.5q0 -42 -29 -71.5t-71 -29.5t-71.5 29.5t-29.5 71.5z" />
<glyph unicode="j" horiz-adv-x="563" d="M-154 -338q0 34 23.5 59.5t57.5 25.5q23 0 52 -13q15 -7 71 -55q44 -38 75 -38q60 0 80 79q11 43 11 187v645q0 150 -9 192q-12 58 -62 58q-28 0 -68 -15l-14 36l274 111h42v-913q0 -198 -77 -317q-91 -142 -279 -142q-60 0 -110 21q-67 28 -67 79zM193 1307q0 42 29 72 t72 30t72.5 -30t29.5 -72q0 -43 -29.5 -72t-72.5 -29q-42 0 -71.5 29.5t-29.5 71.5z" />
<glyph unicode="k" d="M17 0v36q112 0 135 50q15 32 15 113v826q0 216 -29 241q-15 13 -42 13q-21 0 -62 -17l-17 35l269 111h46v-903l230 211q73 66 85 85q8 12 8 24q0 46 -70 50v32h394v-32q-142 -4 -253 -106l-233 -215l233 -294q93 -117 130 -154q48 -47 84 -60q24 -10 86 -10v-36h-441v36 q64 2 64 40q0 23 -39 73l-278 356v-301q0 -131 47 -155q23 -12 99 -13v-36h-461z" />
<glyph unicode="l" horiz-adv-x="563" d="M60 1297l271 111h44v-1203q0 -127 51 -155q26 -14 96 -14v-36h-445v36q97 0 121 55q13 30 13 114v824q0 212 -29 236q-15 13 -39 13q-26 0 -66 -16z" />
<glyph unicode="m" horiz-adv-x="1577" d="M17 823l273 111h43v-193q98 98 116 113q95 80 198 80q187 0 229 -193q80 93 138 133q84 60 179 60q155 0 217 -159q22 -56 22 -180v-390q0 -87 12 -117q23 -52 124 -52v-36h-447v36h18q104 0 124 73q4 15 4 96v390q0 112 -27 156q-37 64 -123 64q-103 0 -234 -124l-2 -11 l2 -42v-433q0 -69 3 -87q14 -82 145 -82v-36h-459v36q121 0 143 71q5 16 5 98v390q0 112 -33 159q-43 64 -122 64q-52 0 -106 -29q-83 -45 -126 -98v-486q0 -128 49 -155q25 -14 98 -14v-36h-448v36q100 0 124 56q13 29 13 113v346q0 151 -9 193q-12 58 -62 58 q-28 0 -66 -15z" />
<glyph unicode="n" d="M12 823l273 111h43v-192q159 192 304 192q153 0 212 -160q22 -58 22 -182v-387q0 -128 50 -155q24 -14 89 -14v-36h-449v36h19q104 0 124 76q4 15 4 93v371q0 236 -141 236q-117 0 -234 -129v-478q0 -91 11 -114q26 -55 136 -55v-36h-448v36h20q76 0 101 48q16 34 16 121 v337q0 222 -29 247q-15 13 -42 13q-28 0 -66 -15z" />
<glyph unicode="o" d="M68 445q0 127 57 243q61 124 165 185t217 61q206 0 331 -157q105 -133 105 -307q0 -129 -55 -245q-58 -123 -162 -188t-230 -65q-205 0 -326 164q-102 137 -102 309zM252 528q0 -169 61 -306q78 -179 226 -179q220 0 220 351q0 241 -104 380q-71 95 -179 95 q-132 0 -191 -140q-33 -79 -33 -201z" />
<glyph unicode="p" d="M-6 -397h25q88 0 114 46q18 32 18 133v858q0 124 -32 147q-17 12 -48 12q-23 0 -60 -14l-12 32l279 113h38v-212q127 216 290 216q136 0 228 -107q111 -131 111 -341q0 -235 -134 -388q-111 -126 -279 -126q-74 0 -127 21q-41 16 -89 59v-276q0 -73 3 -89q9 -48 48 -69 q29 -15 102 -15v-37h-475v37zM316 321q0 -109 9 -145q17 -67 76 -107q55 -37 128 -37q99 0 160 77q80 101 80 284q0 208 -91 320q-63 77 -150 77q-48 0 -94 -24q-36 -18 -118 -107v-338z" />
<glyph unicode="q" d="M67 413q0 220 121 365q130 156 346 156q113 0 189 -64q57 28 110 64h33v-1167q0 -63 4 -84q9 -46 46 -66q25 -14 98 -14v-37h-458v37h19q93 0 116 54q12 29 12 110v390q-157 -185 -297 -185q-159 0 -256 147q-83 128 -83 294zM234 485q0 -148 61 -250q74 -123 214 -123 q110 0 194 108v425q0 137 -88 190q-50 29 -112 29q-141 0 -212 -125q-57 -101 -57 -254z" />
<glyph unicode="r" horiz-adv-x="675" d="M13 823l274 111h42v-204q114 204 233 204q50 0 88 -31t38 -79q0 -38 -24.5 -65t-62.5 -27q-21 0 -80 34t-62 34q-16 0 -38 -20q-46 -41 -92 -134v-434q0 -93 31 -133q36 -43 127 -43v-36h-464v36q117 0 137 72q5 17 5 96v351q0 122 1 122v-2q-5 92 -30 113q-17 14 -44 14 q-31 0 -69 -15z" />
<glyph unicode="s" horiz-adv-x="789" d="M99 671q0 117 80 190q77 73 195 73q54 0 130 -23q50 -15 67 -15q27 0 46 38h32v-309h-32q-32 120 -77 176q-61 74 -170 74q-57 0 -103 -30q-51 -33 -51 -88q0 -105 156 -181l145 -70q201 -98 201 -258q0 -127 -89 -203q-85 -73 -214 -73q-85 0 -190 30q-35 10 -54 10 q-23 0 -35 -26h-33v324h33q23 -120 91 -194q76 -85 190 -85q62 0 108 37.5t46 98.5q0 82 -84 146q-42 32 -162 90q-106 51 -156 99q-70 68 -70 169z" />
<glyph unicode="t" horiz-adv-x="563" d="M20 838v32q122 49 213 197q20 34 63 138h31v-298h212v-69h-212v-589q0 -149 90 -149q77 0 111 80h38q-69 -195 -228 -195q-110 0 -154 98q-21 47 -21 145v610h-143z" />
<glyph unicode="u" d="M2 870v37h318v-607q0 -206 150 -206q98 0 225 129v514q0 80 -34 107q-29 24 -112 26v37h309v-550q0 -214 32 -241q16 -14 38 -14q30 0 69 17l14 -35l-271 -112h-45v192q-88 -96 -136 -130q-84 -62 -172 -62q-160 0 -210 158q-22 69 -22 196v405q0 101 -54 127 q-24 12 -89 12h-10z" />
<glyph unicode="v" d="M17 870v37h427v-37h-28q-79 0 -79 -69q0 -33 20 -82l211 -501l212 520q23 55 23 84q0 14 -8 22q-19 26 -96 26v37h296v-37q-52 -4 -71 -21q-33 -27 -63 -99l-321 -778h-41l-324 766q-36 87 -92 115q-17 9 -66 17z" />
<glyph unicode="w" horiz-adv-x="1464" d="M13 870v37h380v-37q-85 -6 -85 -61q0 -29 17 -74l194 -522l195 425l-52 133q-21 58 -62 82q-23 14 -81 17v37h431v-37q-120 -5 -120 -76q0 -21 8 -41l205 -520l192 502q19 52 19 85q0 47 -95 50v37h286v-37q-86 -13 -126 -117l-303 -781h-41l-227 579l-264 -579h-37 l-291 763q-24 64 -50 91q-31 30 -93 44z" />
<glyph unicode="x" d="M27 870v37h426v-37q-73 0 -73 -50q0 -24 35 -74q16 -22 32 -49l65 -103l74 103q71 99 71 124q0 49 -71 49v37h307v-37q-49 -3 -84 -27q-47 -31 -133 -146l-124 -165l226 -325q65 -94 86 -115q53 -52 125 -56v-36h-428v36q88 0 88 56q0 22 -63 115l-133 194l-145 -194 q-67 -90 -67 -107q0 -60 89 -64v-36h-296v36q36 5 62 24q39 30 127 147l190 252l-172 250q-60 86 -88 112q-53 49 -126 49z" />
<glyph unicode="y" d="M12 870v37h423v-37h-21q-89 0 -89 -67q0 -40 32 -107l221 -457l203 501q17 41 17 80q0 32 -32 44q-16 6 -59 6v37h295v-37q-62 -7 -100 -60q-6 -9 -34 -76l-369 -905q-44 -107 -118 -179q-88 -88 -189 -88q-52 0 -91 29q-43 32 -43 82q0 92 102 92q32 0 89 -21 q39 -15 50 -15q74 0 136 149l64 158l-326 684q-15 30 -47 76q-26 36 -41 46q-22 16 -73 28z" />
<glyph unicode="z" horiz-adv-x="899" d="M41 0v36l602 802h-297q-77 0 -99 -5q-98 -21 -106 -178h-40l6 252h760v-37l-608 -804h331q82 0 115 9q58 16 86 70q16 30 27 133h33l-10 -278h-800z" />
<glyph unicode="{" horiz-adv-x="751" d="M60 555q37 17 62.5 48.5t38.5 69t15 78.5v13q0 33 -8 62l-71 220q-25 76 -25 145q0 16 1 32q7 83 48.5 146t117 99.5t183.5 36.5h257q10 -9 15 -30.5t5 -45.5t-5 -45.5t-15 -29.5h-136q-144 0 -188 -81q-26 -47 -26 -107q0 -44 14 -96l66 -247q4 -16 4 -33q0 -20 -5 -41 q-9 -41 -30.5 -79.5t-50.5 -69.5t-62 -45q33 -11 63 -48t51.5 -80.5t29.5 -88.5q4 -23 4 -42.5t-4 -36.5l-66 -239q-15 -51 -15 -97v-10q2 -51 25 -88.5t70 -59.5t120 -22h136q10 -6 15 -28.5t5 -47.5t-5 -47t-15 -28h-257q-104 0 -178 35.5t-116.5 98.5t-50.5 146 q-2 19 -2 38q0 67 22 142l71 230q8 31 8 64v13q-2 40 -15 77.5t-38.5 69.5t-62.5 49z" />
<glyph unicode="|" horiz-adv-x="425" d="M111 -385v1869q12 12 41.5 18.5t61.5 7.5h9q28 0 53 -6q28 -6 38 -20v-1869q-6 -10 -35 -15.5t-62 -6.5h-10q-28 0 -54 4q-30 6 -42 18z" />
<glyph unicode="}" horiz-adv-x="751" d="M50 -333q0 25 5 47.5t15 28.5h137q74 0 121 22t70.5 59.5t25.5 88.5v10q0 46 -15 97l-66 239q-5 18 -5 39q0 19 3 40q9 45 30.5 88.5t51 80.5t61.5 48q-32 14 -61.5 45t-51 69.5t-30.5 79.5q-3 18 -3 35q0 21 5 39l66 247q15 55 15 103v11q-2 51 -26.5 89.5t-71.5 59.5 t-119 21h-137q-10 8 -15 29.5t-5 45.5t5 45.5t15 30.5h261q107 0 182 -36.5t115.5 -99.5t47.5 -147q1 -15 1 -31q0 -69 -25 -145l-68 -220q-11 -30 -11 -65v-11q2 -40 16.5 -77.5t39.5 -69t62 -48.5q-37 -17 -62 -49t-39.5 -69.5t-15.5 -77.5v-7q0 -36 10 -70l68 -230 q24 -75 24 -142q0 -19 -2 -38q-9 -83 -51.5 -146t-116.5 -98.5t-175 -35.5h-261q-10 6 -15 28t-5 47z" />
<glyph unicode="~" horiz-adv-x="1100" d="M20 466q122 215 302 215q73 0 237 -75q170 -58 207 -58q115 0 207 154l97 -63q-133 -235 -308 -235q-67 0 -132 29l-103 45q-120 69 -200 69q-70 0 -126 -50q-39 -35 -106 -130z" />
<glyph unicode="&#xa2;" d="M128 447q0 251 155 387q120 104 270 104q20 0 61 -4l138 379h72l-144 -398q100 -45 137 -86q47 -54 47 -114q0 -84 -93 -84q-54 0 -85 37q-18 22 -26 81q-4 31 -16 65l-226 -625q86 -60 161 -60q128 0 200 85q32 37 82 144l30 -12q-47 -187 -161 -290q-89 -80 -219 -80 q-80 0 -161 35l-140 -386h-69l153 423q-80 75 -116 152q-50 109 -50 247zM286 530q0 -136 80 -282l221 608q-28 12 -59 12q-101 0 -161 -73q-81 -99 -81 -265z" />
<glyph unicode="&#xa3;" horiz-adv-x="897" d="M65 0l69 174h59q20 112 20 242q0 20 -1 60t-1 60h-108l55 145h47q-2 16 -2 47v22q3 172 115.5 293t281.5 123h3q104 0 184 -65l-94 -146q-105 67 -194 67q-141 0 -141 -159q0 -31 9 -180h167l-58 -145h-105q-8 -245 -93 -364h513l-61 -174h-665z" />
<glyph unicode="&#xa5;" d="M2 348v73h420v142l-15 36h-405v72h373l-211 491q-30 73 -58 101q-39 41 -104 42v37h438v-37q-120 -8 -120 -62q0 -14 18 -58l211 -514l211 499q21 50 21 74q0 21 -21 41q-13 13 -63 17q-7 1 -27 3v37h343v-37q-59 0 -86 -23q-43 -36 -85 -131l-212 -480h383v-72h-415 l-7 -16v-162h422v-73h-422v-106q0 -112 11 -142q22 -59 118 -59h40v-41h-510v41h32q117 0 136 82q4 18 4 119v106h-420z" />
<glyph unicode="&#xa8;" horiz-adv-x="675" d="M56 1216q0 44 31.5 76t75.5 32q46 0 77 -31.5t31 -76.5t-31 -76t-76 -31q-44 0 -76 31t-32 76zM405 1216q0 44 31.5 76t76.5 32q44 0 75.5 -32t31.5 -76q0 -45 -31.5 -76t-75.5 -31q-45 0 -76.5 31t-31.5 76z" />
<glyph unicode="&#xa9;" horiz-adv-x="1540" d="M68 671q0 192 95 356q96 167 263 256.5t344 89.5q188 0 352 -93q167 -94 257 -256q94 -170 94 -353q0 -190 -94 -352q-95 -166 -259 -257q-169 -93 -350 -93q-193 0 -353 92q-164 94 -256.5 261t-92.5 349zM130 671q0 -174 86 -323.5t237 -233.5t317 -84q175 0 324.5 85 t233.5 237t84 319q0 175 -87 325.5t-239.5 233.5t-315.5 83q-170 0 -320 -86q-152 -88 -234 -234q-86 -154 -86 -322zM317 665q0 209 143 337q138 122 350 122q69 0 183 -38q24 -8 37 -8q30 0 48 45h40l20 -278h-39q-70 234 -300 234q-159 0 -244 -117q-74 -103 -74 -268 q0 -180 71 -285q85 -124 257 -124q193 0 309 161l36 -19q-137 -201 -379 -201q-199 0 -328.5 120.5t-129.5 318.5z" />
<glyph unicode="&#xab;" d="M63 459l383 466h57l-242 -466l242 -467h-57zM503 459l390 466h57l-240 -466l240 -467h-57z" />
<glyph unicode="&#xae;" horiz-adv-x="1540" d="M68 671q0 192 95 356q96 167 263 256.5t344 89.5q188 0 352 -93q167 -94 257 -256q94 -170 94 -353q0 -190 -94 -352q-95 -166 -259 -257q-169 -93 -350 -93q-193 0 -353 92q-164 94 -256.5 261t-92.5 349zM130 671q0 -174 86 -323.5t237 -233.5t317 -84q175 0 324.5 85 t233.5 237t84 319q0 175 -87 325.5t-239.5 233.5t-315.5 83q-170 0 -320 -86q-152 -88 -234 -234q-86 -154 -86 -322zM370 247v32q77 0 96 45q7 17 7 92v518q0 75 -3 86q-13 47 -88 47v36h382q119 0 199 -51q95 -59 95 -171q0 -162 -219 -220l206 -295q37 -52 68 -72 q18 -12 52 -15v-32h-182l-291 400h-75v-305q11 -63 117 -63v-32h-364zM617 690q193 0 253 87q29 42 29 93q0 86 -56 137.5t-143 51.5q-38 0 -83 -16v-353z" />
<glyph unicode="&#xb0;" horiz-adv-x="789" d="M83 1028q0 134 87.5 222t222.5 88t223 -88t88 -222q0 -135 -88 -221.5t-223 -86.5q-134 0 -222 87t-88 221zM168 1028q0 -101 64 -165t165 -64t165.5 64.5t64.5 164.5t-65 164.5t-165 64.5t-164.5 -64t-64.5 -165z" />
<glyph unicode="&#xb4;" horiz-adv-x="675" d="M234 1035l104 341h221l-292 -341h-33z" />
<glyph unicode="&#xb8;" horiz-adv-x="675" d="M185 -337q28 -4 48 -4q47 0 83 31.5t36 77.5q0 32 -23.5 53t-55.5 21q-10 0 -25 -2l109 176h60l-50 -78q124 -32 124 -145q0 -82 -67 -133q-61 -46 -146 -46q-36 0 -93 7v42z" />
<glyph unicode="&#xbb;" d="M63 -8l241 465l-241 468h58l390 -468l-390 -465h-58zM511 -8l241 465l-241 468h56l383 -468l-383 -465h-56z" />
<glyph unicode="&#x2c6;" horiz-adv-x="780" d="M27 432l314 694h105l314 -694h-158l-206 503l-230 -503h-139z" />
<glyph unicode="&#x2da;" horiz-adv-x="526" d="M-311 429q0 134 87.5 222t222.5 88t223 -88t88 -222q0 -135 -88 -221.5t-223 -86.5q-134 0 -222 87t-88 221zM-226 429q0 -101 64 -165t165 -64t165.5 64.5t64.5 164.5t-65 164.5t-165 64.5t-164.5 -64t-64.5 -165z" />
<glyph unicode="&#x2dc;" horiz-adv-x="526" d="M-524 219q122 215 302 215q73 0 237 -75q170 -58 207 -58q115 0 207 154l97 -63q-133 -235 -308 -235q-67 0 -132 29l-103 45q-120 69 -200 69q-70 0 -126 -50q-39 -35 -106 -130z" />
<glyph unicode="&#x5b0;" horiz-adv-x="145" d="M0 -132h146v-144h-146v144zM0 -361h146v-144h-146v144z" />
<glyph unicode="&#x5b1;" horiz-adv-x="644" d="M0 -132h146v-144h-146v144zM126 -361h145v-144h-145v144zM249 -132h146v-144h-146v144zM499 -132h145v-144h-145v144zM499 -361h145v-144h-145v144z" />
<glyph unicode="&#x5b2;" horiz-adv-x="628" d="M0 -132h395v-121h-395v121zM482 -132h147v-144h-147v144zM482 -361h147v-144h-147v144z" />
<glyph unicode="&#x5b3;" horiz-adv-x="628" d="M0 -132h395v-121h-144l8 -205h-119l6 205h-146v121zM482 -132h147v-144h-147v144zM482 -361h147v-144h-147v144z" />
<glyph unicode="&#x5b4;" horiz-adv-x="145" d="M0 -132h146v-144h-146v144z" />
<glyph unicode="&#x5b5;" horiz-adv-x="395" d="M0 -132h146v-144h-146v144zM249 -132h146v-144h-146v144z" />
<glyph unicode="&#x5b6;" horiz-adv-x="395" d="M0 -132h146v-144h-146v144zM126 -361h145v-144h-145v144zM249 -132h146v-144h-146v144z" />
<glyph unicode="&#x5b7;" horiz-adv-x="395" d="M0 -132h395v-121h-395v121z" />
<glyph unicode="&#x5b8;" horiz-adv-x="395" d="M0 -132h395v-121h-144l8 -205h-119l6 205h-146v121z" />
<glyph unicode="&#x5b9;" horiz-adv-x="145" d="M0 1124v143h146v-143h-146z" />
<glyph unicode="&#x5bb;" horiz-adv-x="644" d="M0 -132h146v-144h-146v144zM249 -248h146v-143h-146v143zM499 -361h145v-144h-145v144z" />
<glyph unicode="&#x5bc;" horiz-adv-x="145" d="M0 438v144h146v-144h-146z" />
<glyph unicode="&#x5bd;" horiz-adv-x="91" d="M0 -132h91v-257h-91v257z" />
<glyph unicode="&#x5be;" horiz-adv-x="581" d="M49 521v6q0 21 3 41q4 24 14 36h449q10 -12 15.5 -35.5t5.5 -47.5t-6.5 -45.5t-14.5 -33.5h-449q-8 12 -12 33.5t-5 45.5z" />
<glyph unicode="&#x5bf;" horiz-adv-x="581" d="M49 521v6q0 21 3 41q4 24 14 36h449q10 -12 15.5 -35.5t5.5 -47.5t-6.5 -45.5t-14.5 -33.5h-449q-8 12 -12 33.5t-5 45.5z" />
<glyph unicode="&#x5c0;" horiz-adv-x="425" d="M111 -385v1869q12 12 41.5 18.5t61.5 7.5h9q28 0 53 -6q28 -6 38 -20v-1869q-6 -10 -35 -15.5t-62 -6.5h-10q-28 0 -54 4q-30 6 -42 18z" />
<glyph unicode="&#x5c1;" horiz-adv-x="1234" d="M843 1124v143h146v-143h-146z" />
<glyph unicode="&#x5c2;" horiz-adv-x="1234" d="M122 1124v143h145v-143h-145z" />
<glyph unicode="&#x5c3;" horiz-adv-x="395" d="M40 95q0 53 36.5 89.5t88.5 36.5q53 0 90.5 -36.5t37.5 -89.5q0 -52 -37.5 -90t-90.5 -38q-52 0 -88.5 38t-36.5 90zM40 718q0 52 36.5 88.5t88.5 36.5q53 0 90.5 -36.5t37.5 -88.5q0 -53 -37.5 -89.5t-90.5 -36.5q-52 0 -88.5 36.5t-36.5 89.5z" />
<glyph unicode="&#x5d0;" horiz-adv-x="1151" d="M50 1028q14 18 51 29t81 13h15q37 0 73 -8q44 -10 75 -34l369 -483q31 45 49.5 80.5t27 84t9.5 122.5t1 196q20 20 55.5 31t73 11t72 -11t54.5 -31q0 -103 -8 -184.5t-34.5 -151t-76 -133.5t-132.5 -133l306 -397q-14 -23 -51.5 -35t-83 -12t-92 11t-79.5 36l-410 545 q-37 -44 -54 -102t-25 -127t-8 -149v-167q-24 -25 -56.5 -36t-68 -11t-68 12t-57.5 35q0 113 9.5 210.5t37 179.5t74 150t123.5 124z" />
<glyph unicode="&#x5d1;" horiz-adv-x="1074" d="M50 90.5q0 25.5 8 48.5t25 35h606q-16 14 -24.5 38t-11.5 51t-4 55t-1 53v233q0 128 -67.5 209t-214.5 81q-87 0 -151 -24.5t-110 -52.5q-28 28 -33 82q-1 7 -1 13q0 47 34 88q75 42 156.5 55t176.5 13q216 0 341 -114t125 -348v-314q0 -63 7.5 -90.5t28.5 -27.5h53 q17 -12 25 -35t8 -50t-8 -51t-27 -38h-908q-17 14 -25 39.5t-8 51z" />
<glyph unicode="&#x5d2;" horiz-adv-x="853" d="M70 29v133q0 186 106.5 291.5t290.5 105.5h31v120q0 97 -47.5 160t-144.5 63q-56 0 -96.5 -22.5t-63.5 -49.5q-19 17 -29 41.5t-10 49.5t8 49t25 42q40 27 102 42.5t128 15.5q81 0 151 -22t122 -70.5t80 -128t28 -194.5v-626q-17 -25 -52 -36q-32 -10 -67 -10h-6 q-39 1 -73 12t-55 34v403h-10q-83 0 -137 -73t-54 -197v-133q-20 -25 -51 -36q-29 -10 -60 -10h-5q-33 1 -64 12t-47 34z" />
<glyph unicode="&#x5d3;" horiz-adv-x="1068" d="M40 975q0 27 7.5 49t24.5 32h878q28 -36 28 -83v-7q-2 -51 -28 -88h-119q-21 0 -28 -36.5t-7 -95.5v-717q-23 -27 -60 -38q-34 -10 -68 -10h-7q-37 1 -71 14t-49 34v644q0 25 2.5 53t11.5 57.5t24.5 53.5t42.5 41h-550q-17 18 -24.5 44t-7.5 53z" />
<glyph unicode="&#x5d4;" horiz-adv-x="1114" d="M70 891v9q0 22 7 44q9 27 32 52q52 30 144 55t251 25q116 0 210.5 -27t160 -82.5t102 -143t36.5 -206.5v-588q-22 -23 -56.5 -34t-71.5 -11t-71 11t-57 34v563q0 152 -76.5 233t-238.5 81q-116 0 -193.5 -27.5t-139.5 -67.5q-16 12 -26.5 33t-12.5 47zM103 29v583 q20 27 52.5 41t69 14t72 -14t59.5 -41v-583q-24 -23 -58.5 -34t-71 -11t-70 11t-53.5 34z" />
<glyph unicode="&#x5d5;" horiz-adv-x="466" d="M101 29v999q16 20 51.5 30t74 10t74.5 -10t53 -30v-999q-19 -25 -55 -36t-73.5 -11t-72 12t-52.5 35z" />
<glyph unicode="&#x5d6;" horiz-adv-x="723" d="M43 964q0 27 8.5 51.5t29.5 40.5h552q13 -16 21.5 -40.5t8.5 -50.5t-7.5 -49.5t-22.5 -37.5h-116q-14 0 -23.5 -16.5t-15.5 -43.5t-9 -61.5t-3 -71.5v-656q-16 -23 -51.5 -35t-75 -12t-76 12t-52.5 35v644q0 25 5 55t17.5 59.5t31.5 53.5t45 37h-229q-19 12 -28.5 35.5 t-9.5 50.5z" />
<glyph unicode="&#x5d7;" horiz-adv-x="1124" d="M101 29v873q0 96 31 125t87 29h441q87 0 154 -18t114 -61.5t71.5 -113.5t24.5 -174v-660q-17 -23 -51 -35t-74 -12t-75.5 12t-53.5 35v660q0 98 -52 143.5t-118 45.5h-215q-21 0 -26 -6.5t-5 -26.5v-816q-22 -25 -57 -36q-33 -10 -67 -10h-6q-38 1 -71.5 12t-51.5 34z " />
<glyph unicode="&#x5d8;" horiz-adv-x="1207" d="M101 445v583q20 20 56.5 29t74 9t72.5 -9t50 -29v-614q0 -132 56 -203t190 -71q68 0 116 23t78.5 63.5t44.5 94.5t14 115v363q0 29 -12 46.5t-30 17.5q-19 0 -35 -12.5t-33 -47.5l-91 -193q-36 -45 -90 -51q-7 -1 -13 -1q-47 0 -90 42l124 270q52 111 110 154.5t154 43.5 q41 0 86.5 -12t84 -46.5t64 -94.5t25.5 -153v-282q0 -126 -38.5 -221t-106.5 -159.5t-160.5 -98.5t-201.5 -34q-248 0 -373.5 114t-125.5 364z" />
<glyph unicode="&#x5d9;" horiz-adv-x="466" d="M101 476v552q16 20 51.5 30t74 10t74.5 -10t53 -30v-552q-19 -24 -55 -35t-73.5 -11t-72 12t-52.5 34z" />
<glyph unicode="&#x5da;" horiz-adv-x="962" d="M28 905.5q0 27.5 10 54.5t32 46q53 28 143.5 45t187.5 17q217 0 338.5 -126.5t121.5 -359.5v-917q-19 -23 -55 -35.5t-75.5 -12.5t-75 12.5t-49.5 35.5v915q0 59 -18.5 115.5t-53 100.5t-86 70t-120.5 26q-85 0 -151 -23.5t-107 -49.5q-20 13 -31 36t-11 50.5z" />
<glyph unicode="&#x5db;" horiz-adv-x="1015" d="M60 135q0 27 10 50.5t31 35.5q39 -30 101.5 -52.5t123.5 -22.5q73 0 137 24.5t111.5 72t75 116.5t27.5 160t-27.5 162t-75 118.5t-111.5 72t-137 24.5q-61 0 -123.5 -20.5t-101.5 -49.5q-23 16 -32 41t-8 52t11.5 52t28.5 39q58 32 145.5 45t185.5 13q101 0 193.5 -32 t163 -100t113 -171.5t42.5 -243.5q0 -138 -44.5 -240.5t-117.5 -170t-168 -101.5t-195 -34q-97 0 -178.5 14.5t-139.5 47.5q-23 15 -32 43t-9 55z" />
<glyph unicode="&#x5dc;" horiz-adv-x="950" d="M50 981v406q20 29 55 41.5t72.5 12.5t72 -14t54.5 -40v-304q0 -17 3 -22t17 -5h414q102 0 102 -114v-412q0 -102 -34 -197t-99.5 -169.5t-164 -119t-226.5 -44.5h-59q-18 14 -28 37t-10 49t8 49t26 39h57q144 0 208 78.5t64 227.5v367q0 31 -25 31h-417q-90 0 -90 103z " />
<glyph unicode="&#x5dd;" horiz-adv-x="1179" d="M101 105v797q0 96 32.5 125t85.5 29h486q91 0 161.5 -18t117 -61.5t70.5 -113.5t24 -174v-584q0 -105 -89 -105h-799q-89 0 -89 105zM356 207q0 -33 23 -33h424q22 0 22 33v482q0 49 -14.5 84.5t-39 58.5t-54.5 34.5t-63 11.5h-269q-21 0 -25 -10.5t-4 -29.5v-631z" />
<glyph unicode="&#x5de;" horiz-adv-x="1238" d="M40 1028q11 20 48 31t80.5 11t85 -11t59.5 -31l106 -264l27 74q44 121 122.5 175.5t211.5 54.5q76 0 142 -20t115 -62t76 -106.5t27 -155.5v-347q0 -114 -33.5 -189.5t-88 -122.5t-124 -67.5t-141.5 -20.5q-15 0 -39 2.5t-48 7.5t-47.5 12t-37.5 17q-17 23 -23 48 t-3 47.5t12.5 40.5t21.5 28q23 -16 50 -26t56 -10q36 0 71.5 11t61.5 37.5t42.5 68t16.5 100.5v377q0 38 -14.5 67t-34.5 47t-45.5 27t-45.5 9q-48 0 -87.5 -30t-68.5 -110l-251 -719q-22 -25 -61.5 -36t-82.5 -11t-78.5 12t-47.5 35l233 606q-6 -1 -13 -1q-28 0 -60 14 q-40 17 -53 45z" />
<glyph unicode="&#x5df;" horiz-adv-x="466" d="M101 -335v1363q16 20 51.5 30t74 10t74.5 -10t53 -30v-1363q-19 -23 -55 -34.5t-73.5 -11.5t-72 12.5t-52.5 33.5z" />
<glyph unicode="&#x5e0;" horiz-adv-x="774" d="M70 88q0 28 9 52t28 34h288q22 0 22 33v499q0 85 -46.5 135.5t-120.5 50.5q-31 0 -62 -12t-42 -27q-23 17 -33 44.5t-9 54.5t11 49.5t31 32.5q17 10 59.5 21t102.5 11q70 0 136 -18t117 -63t81 -117.5t30 -182.5v-580q0 -105 -89 -105h-476q-19 10 -28 35t-9 53z" />
<glyph unicode="&#x5e1;" horiz-adv-x="1205" d="M70 523q0 140 44.5 245.5t119 174.5t170.5 103.5t200 34.5q105 0 201.5 -33.5t169 -101.5t116.5 -173.5t44 -249.5t-44 -249.5t-116.5 -174t-169 -102.5t-201.5 -34q-104 0 -200 35t-170.5 103.5t-119 174t-44.5 247.5zM332 525q0 -89 19 -161t56 -122.5t86.5 -79 t110.5 -28.5q124 0 196.5 103.5t72.5 281.5q0 176 -69.5 284t-199.5 108t-201 -104.5t-71 -281.5z" />
<glyph unicode="&#x5e2;" horiz-adv-x="1110" d="M52 1028q16 18 53 29t77 12h8l73 -9q41 -10 66 -32l302 -809q62 40 88 96t26 163v550q19 22 56 32q34 9 70 9h7q40 -1 75.5 -11t50.5 -30v-473q0 -129 -40.5 -231.5t-112 -174.5t-168.5 -110.5t-213 -38.5h-377q-21 10 -31 34t-10 52t10 52t31 36h339q22 0 34 4t22 8 q-18 7 -41 23t-46.5 37t-42.5 45.5t-27 47.5z" />
<glyph unicode="&#x5e3;" horiz-adv-x="1161" d="M70 685q0 75 31.5 146t94 126t155.5 88.5t214 33.5q239 0 366.5 -116t127.5 -326v-972q-16 -26 -52.5 -39t-76 -13t-75.5 13t-51 39v972q0 52 -15 102t-45.5 87t-76 60t-106.5 23q-112 0 -174.5 -61t-62.5 -150q0 -41 16 -74.5t43.5 -58.5t62 -39.5t71.5 -14.5 q35 0 82 13.5t75 30.5q29 -23 29 -58q0 -7 -1 -14q-7 -45 -42 -77q-12 -13 -32 -24t-44.5 -20.5t-52 -15t-51.5 -5.5q-73 0 -146 20t-131.5 62.5t-95.5 107.5t-37 154z" />
<glyph unicode="&#x5e4;" horiz-adv-x="1177" d="M70 685q0 75 31.5 146t94 126t155.5 88.5t214 33.5q122 0 222 -39.5t171.5 -111t110 -171.5t38.5 -221q0 -128 -46 -231.5t-125 -177t-185.5 -113t-227.5 -39.5q-118 0 -203 25t-151 71q-21 20 -30.5 50.5t-7.5 61t13 56.5t29 41q56 -57 133.5 -91.5t162.5 -34.5 q75 0 143 25.5t120 74t82 120t30 162.5q0 87 -24 156.5t-64.5 117t-91 73.5t-103.5 26q-112 0 -174.5 -61t-62.5 -150q0 -41 16 -74.5t43.5 -58.5t62 -39.5t71.5 -14.5q35 0 82 13.5t75 30.5q29 -23 29 -58q0 -7 -1 -14q-7 -45 -42 -77q-12 -13 -32 -24t-44.5 -20.5t-52 -15 t-51.5 -5.5q-73 0 -146 20t-131.5 62.5t-95.5 107.5t-37 154z" />
<glyph unicode="&#x5e5;" horiz-adv-x="1060" d="M30 1028q14 20 49.5 31t76 11t78 -11t59.5 -31l242 -541q71 34 108 89t54.5 124.5t20.5 153t3 174.5q19 20 53 32t73.5 12t76 -10t54.5 -34q0 -140 -21 -244.5t-68 -182.5t-120.5 -136.5t-181.5 -108.5l327 -691q-19 -17 -48 -27.5t-66 -10.5t-75 9.5t-73 28.5z" />
<glyph unicode="&#x5e6;" horiz-adv-x="1088" d="M32 1028q16 20 54.5 30t82 10t87 -10t68.5 -30l316 -459q38 41 59.5 77.5t31 85t10.5 119t1 177.5q19 20 55 30t73.5 10t71.5 -10t57 -30q0 -142 -14.5 -230t-47.5 -148t-87 -105.5t-131 -99.5l211 -293q26 -36 31 -64t-3 -48t-26 -30t-39 -10h-768q-24 10 -35.5 34 t-10.5 52t12.5 53t33.5 35h507z" />
<glyph unicode="&#x5e7;" horiz-adv-x="1159" d="M75 967v5q0 24 8 45q9 23 30 39h533q200 0 323 -109t123 -330q0 -139 -53.5 -252.5t-142 -195.5t-202 -130.5t-235.5 -54.5q-13 12 -20.5 35.5t-8.5 47.5t5.5 45.5t21.5 31.5q201 38 286.5 155t85.5 291q0 56 -16.5 108t-47.5 92t-77 64t-105 24h-470q-19 16 -28 39 t-10 50zM105 -335v1049q20 27 53.5 39.5t70 12.5t72 -14t59.5 -42v-1045q-18 -21 -53.5 -32.5t-75 -11.5t-74 11.5t-52.5 32.5z" />
<glyph unicode="&#x5e8;" horiz-adv-x="962" d="M28 905.5q0 27.5 10 54.5t32 46q53 28 143.5 45t185.5 17q217 0 339.5 -126.5t122.5 -359.5v-553q-19 -25 -55 -36t-75.5 -11t-75 12t-49.5 35v551q0 59 -18.5 115.5t-54 100.5t-87 70t-120.5 26q-85 0 -150 -23.5t-106 -49.5q-20 13 -31 36t-11 50.5z" />
<glyph unicode="&#x5e9;" horiz-adv-x="1402" d="M101 534v494q20 22 59 32q35 9 70 9h8q39 -1 73 -12t45 -29v-531q0 -183 90.5 -270t250.5 -87q166 0 257 96.5t91 303.5v488q25 20 61.5 30t74 10t71 -10t49.5 -30v-467q0 -137 -42.5 -246.5t-120.5 -187t-189.5 -119t-251.5 -41.5q-286 0 -441 146t-155 421zM575 284 v744q21 20 55 30t70 10t69.5 -10t53.5 -30v-744q-16 -17 -48.5 -30.5t-73.5 -13.5q-47 0 -78 13.5t-48 30.5z" />
<glyph unicode="&#x5ea;" horiz-adv-x="1246" d="M29 95v6q0 23 8 45q9 24 31 42q10 -12 28.5 -24t41.5 -12q52 0 76.5 37.5t24.5 104.5v373q0 16 1 45t6.5 60t17 59t33.5 47h-155q-19 12 -28 36.5t-10 50.5t8 51.5t30 39.5h669q174 0 253.5 -94t79.5 -273v-660q-17 -25 -53 -36t-75.5 -11t-74.5 12t-50 35v669 q0 82 -40 131t-109 49h-211q-16 0 -23.5 -13.5t-11.5 -33.5t-4 -46v-51v-415q0 -185 -79 -264.5t-223 -79.5q-41 0 -72.5 11.5t-45.5 21.5q-20 15 -31 38t-12 49z" />
<glyph unicode="&#x5f0;" horiz-adv-x="932" d="M101 29v999q16 20 51.5 30t74 10t74.5 -10t53 -30v-999q-19 -25 -55 -36t-73.5 -11t-72 12t-52.5 35zM567 29v999q16 20 51.5 30t74 10t74.5 -10t53 -30v-999q-19 -25 -55 -36t-73.5 -11t-72 12t-52.5 35z" />
<glyph unicode="&#x5f1;" horiz-adv-x="932" d="M101 476v552q16 20 51.5 30t74 10t74.5 -10t53 -30v-552q-19 -24 -55 -35t-73.5 -11t-72 12t-52.5 34zM567 29v999q16 20 51.5 30t74 10t74.5 -10t53 -30v-999q-19 -25 -55 -36t-73.5 -11t-72 12t-52.5 35z" />
<glyph unicode="&#x5f2;" horiz-adv-x="932" d="M101 476v552q16 20 51.5 30t74 10t74.5 -10t53 -30v-552q-19 -24 -55 -35t-73.5 -11t-72 12t-52.5 34zM567 476v552q16 20 51.5 30t74 10t74.5 -10t53 -30v-552q-19 -24 -55 -35t-73.5 -11t-72 12t-52.5 34z" />
<glyph unicode="&#x5f3;" horiz-adv-x="350" d="M50 921q12 23 29.5 66t33 95t28 105t19.5 96q26 -2 51.5 -19t46.5 -41.5t35.5 -54t16.5 -57.5q-14 -45 -39 -92.5t-55 -92t-61 -81t-58 -56.5q-10 6 -19.5 21.5t-15.5 35t-10 38.5q-2 16 -2 29v8z" />
<glyph unicode="&#x5f4;" horiz-adv-x="640" d="M50 921q12 25 29.5 69t33 95t28 103t19.5 95q26 -2 51.5 -19t46.5 -41.5t35.5 -54t16.5 -57.5q-12 -30 -38 -77t-58 -94.5t-63 -89t-54 -61.5q-10 6 -19.5 21.5t-15.5 35t-9 38.5q-3 16 -3 29v8zM331 921q12 25 28 69t32 95t29.5 103t19.5 95q26 -2 51.5 -19t46.5 -41.5 t35.5 -54t16.5 -57.5q-12 -30 -39.5 -76t-59 -92.5t-63 -88t-51.5 -65.5q-10 6 -19.5 21.5t-15 35t-9.5 38.5q-3 13 -3 25q0 6 1 12z" />
<glyph unicode="&#x2013;" d="M-17 448v73h1049v-73h-1049z" />
<glyph unicode="&#x2014;" horiz-adv-x="2027" d="M50 442v162h1932v-162h-1932z" />
<glyph unicode="&#x2018;" horiz-adv-x="350" d="M50 921q12 23 29.5 66t33 95t28 105t19.5 96q26 -2 51.5 -19t46.5 -41.5t35.5 -54t16.5 -57.5q-14 -45 -39 -92.5t-55 -92t-61 -81t-58 -56.5q-10 6 -19.5 21.5t-15.5 35t-10 38.5q-2 16 -2 29v8z" />
<glyph unicode="&#x2019;" horiz-adv-x="350" d="M50 921q12 23 29.5 66t33 95t28 105t19.5 96q26 -2 51.5 -19t46.5 -41.5t35.5 -54t16.5 -57.5q-14 -45 -39 -92.5t-55 -92t-61 -81t-58 -56.5q-10 6 -19.5 21.5t-15.5 35t-10 38.5q-2 16 -2 29v8z" />
<glyph unicode="&#x201a;" horiz-adv-x="350" d="M50 921q12 23 29.5 66t33 95t28 105t19.5 96q26 -2 51.5 -19t46.5 -41.5t35.5 -54t16.5 -57.5q-14 -45 -39 -92.5t-55 -92t-61 -81t-58 -56.5q-10 6 -19.5 21.5t-15.5 35t-10 38.5q-2 16 -2 29v8z" />
<glyph unicode="&#x201c;" horiz-adv-x="640" d="M50 921q12 25 29.5 69t33 95t28 103t19.5 95q26 -2 51.5 -19t46.5 -41.5t35.5 -54t16.5 -57.5q-12 -30 -38 -77t-58 -94.5t-63 -89t-54 -61.5q-10 6 -19.5 21.5t-15.5 35t-9 38.5q-3 16 -3 29v8zM331 921q12 25 28 69t32 95t29.5 103t19.5 95q26 -2 51.5 -19t46.5 -41.5 t35.5 -54t16.5 -57.5q-12 -30 -39.5 -76t-59 -92.5t-63 -88t-51.5 -65.5q-10 6 -19.5 21.5t-15 35t-9.5 38.5q-3 13 -3 25q0 6 1 12z" />
<glyph unicode="&#x201d;" horiz-adv-x="640" d="M50 921q12 25 29.5 69t33 95t28 103t19.5 95q26 -2 51.5 -19t46.5 -41.5t35.5 -54t16.5 -57.5q-12 -30 -38 -77t-58 -94.5t-63 -89t-54 -61.5q-10 6 -19.5 21.5t-15.5 35t-9 38.5q-3 16 -3 29v8zM331 921q12 25 28 69t32 95t29.5 103t19.5 95q26 -2 51.5 -19t46.5 -41.5 t35.5 -54t16.5 -57.5q-12 -30 -39.5 -76t-59 -92.5t-63 -88t-51.5 -65.5q-10 6 -19.5 21.5t-15 35t-9.5 38.5q-3 13 -3 25q0 6 1 12z" />
<glyph unicode="&#x201e;" horiz-adv-x="640" d="M50 921q12 25 29.5 69t33 95t28 103t19.5 95q26 -2 51.5 -19t46.5 -41.5t35.5 -54t16.5 -57.5q-12 -30 -38 -77t-58 -94.5t-63 -89t-54 -61.5q-10 6 -19.5 21.5t-15.5 35t-9 38.5q-3 16 -3 29v8zM331 921q12 25 28 69t32 95t29.5 103t19.5 95q26 -2 51.5 -19t46.5 -41.5 t35.5 -54t16.5 -57.5q-12 -30 -39.5 -76t-59 -92.5t-63 -88t-51.5 -65.5q-10 6 -19.5 21.5t-15 35t-9.5 38.5q-3 13 -3 25q0 6 1 12z" />
<glyph unicode="&#x2026;" horiz-adv-x="2027" d="M228 82q0 47 31.5 78.5t78.5 31.5q46 0 77.5 -31.5t31.5 -78.5q0 -45 -32 -77.5t-77 -32.5q-46 0 -78 32.5t-32 77.5zM904 82q0 47 31.5 78.5t78.5 31.5q45 0 77.5 -32t32.5 -78q0 -45 -32.5 -77.5t-77.5 -32.5q-46 0 -78 32.5t-32 77.5zM1580 82q0 47 31.5 78.5 t78.5 31.5q45 0 77.5 -32t32.5 -78q0 -45 -32.5 -77.5t-77.5 -32.5q-46 0 -78 32.5t-32 77.5z" />
<glyph unicode="&#x2039;" horiz-adv-x="675" d="M118 459l383 466h56l-241 -466l241 -467h-56z" />
<glyph unicode="&#x203a;" horiz-adv-x="675" d="M114 -8l240 465l-240 468h57l390 -468l-390 -465h-57z" />
<glyph unicode="&#x2122;" horiz-adv-x="1986" d="M30 1143l20 199h721l22 -199h-34q-19 140 -192 140h-74v-573q0 -75 16 -99q20 -29 89 -32v-35h-370v35q67 6 85 34q14 22 14 96v574h-76q-86 0 -126 -27q-46 -30 -62 -113h-33zM861 544v35q85 0 103 41q9 21 9 89v461q0 107 -36 126q-19 10 -76 10v36h283l271 -566 l262 566h276v-36q-40 -1 -59 -6q-30 -8 -42 -37q-9 -22 -9 -91v-463q0 -79 16 -100q20 -26 94 -30v-35h-394v35q44 1 63 6q33 9 46 38q9 20 9 85v487l-304 -651h-32l-304 642v-477q0 -98 35 -119q19 -11 57 -11h35v-35h-303z" />
<glyph unicode="&#xe000;" horiz-adv-x="905" d="M0 905h905v-905h-905v905z" />
<glyph unicode="&#xfb00;" horiz-adv-x="1350" d="M78 836v71h176v59q0 268 178 382q89 58 201 58q104 0 191 -68q57 -44 57 -100q0 -29 -25.5 -55.5t-55.5 -26.5q-17 0 -109 89.5t-137 89.5q-96 0 -122 -99q-14 -52 -14 -264v-65h233v-71h-233v-596q0 -127 28 -161q36 -43 98 -43h82v-36h-542v36h41q91 0 118 73 q11 33 11 131v596h-176zM753 836v71h176v59q0 268 178 382q89 58 201 58q104 0 191 -68q57 -44 57 -100q0 -29 -25.5 -55.5t-55.5 -26.5q-17 0 -109 89.5t-137 89.5q-96 0 -122 -99q-14 -52 -14 -264v-65h233v-71h-233v-596q0 -127 28 -161q36 -43 98 -43h82v-36h-542v36h41 q91 0 118 73q11 33 11 131v596h-176z" />
<glyph unicode="&#xfb01;" horiz-adv-x="1238" d="M78 836v71h176v59q0 268 178 382q89 58 201 58q104 0 191 -68q57 -44 57 -100q0 -29 -25.5 -55.5t-55.5 -26.5q-17 0 -109 89.5t-137 89.5q-96 0 -122 -99q-14 -52 -14 -264v-65h233v-71h-233v-596q0 -127 28 -161q36 -43 98 -43h82v-36h-542v36h41q91 0 118 73 q11 33 11 131v596h-176zM734 823l274 111h43v-729q0 -128 50 -155q24 -14 88 -14v-36h-441v36q101 0 126 55q13 29 13 114v349q0 149 -9 191q-12 57 -62 57q-28 0 -68 -15zM868 1308q0 42 29 71t72 29q42 0 71 -29.5t29 -70.5q0 -42 -29 -71.5t-71 -29.5t-71.5 29.5 t-29.5 71.5z" />
<glyph unicode="&#xfb02;" horiz-adv-x="1238" d="M78 836v71h176v59q0 268 178 382q89 58 201 58q104 0 191 -68q57 -44 57 -100q0 -29 -25.5 -55.5t-55.5 -26.5q-17 0 -109 89.5t-137 89.5q-96 0 -122 -99q-14 -52 -14 -264v-65h233v-71h-233v-596q0 -127 28 -161q36 -43 98 -43h82v-36h-542v36h41q91 0 118 73 q11 33 11 131v596h-176zM735 1297l271 111h44v-1203q0 -127 51 -155q26 -14 96 -14v-36h-445v36q97 0 121 55q13 30 13 114v824q0 212 -29 236q-15 13 -39 13q-26 0 -66 -16z" />
<glyph unicode="&#xfb03;" horiz-adv-x="1913" d="M78 836v71h176v59q0 268 178 382q89 58 201 58q104 0 191 -68q57 -44 57 -100q0 -29 -25.5 -55.5t-55.5 -26.5q-17 0 -109 89.5t-137 89.5q-96 0 -122 -99q-14 -52 -14 -264v-65h233v-71h-233v-596q0 -127 28 -161q36 -43 98 -43h82v-36h-542v36h41q91 0 118 73 q11 33 11 131v596h-176zM753 836v71h176v59q0 268 178 382q89 58 201 58q104 0 191 -68q57 -44 57 -100q0 -29 -25.5 -55.5t-55.5 -26.5q-17 0 -109 89.5t-137 89.5q-96 0 -122 -99q-14 -52 -14 -264v-65h233v-71h-233v-596q0 -127 28 -161q36 -43 98 -43h82v-36h-542v36h41 q91 0 118 73q11 33 11 131v596h-176zM1409 823l274 111h43v-729q0 -128 50 -155q24 -14 88 -14v-36h-441v36q101 0 126 55q13 29 13 114v349q0 149 -9 191q-12 57 -62 57q-28 0 -68 -15zM1543 1308q0 42 29 71t72 29q42 0 71 -29.5t29 -70.5q0 -42 -29 -71.5t-71 -29.5 t-71.5 29.5t-29.5 71.5z" />
<glyph unicode="&#xfb04;" horiz-adv-x="1913" d="M78 836v71h176v59q0 268 178 382q89 58 201 58q104 0 191 -68q57 -44 57 -100q0 -29 -25.5 -55.5t-55.5 -26.5q-17 0 -109 89.5t-137 89.5q-96 0 -122 -99q-14 -52 -14 -264v-65h233v-71h-233v-596q0 -127 28 -161q36 -43 98 -43h82v-36h-542v36h41q91 0 118 73 q11 33 11 131v596h-176zM753 836v71h176v59q0 268 178 382q89 58 201 58q104 0 191 -68q57 -44 57 -100q0 -29 -25.5 -55.5t-55.5 -26.5q-17 0 -109 89.5t-137 89.5q-96 0 -122 -99q-14 -52 -14 -264v-65h233v-71h-233v-596q0 -127 28 -161q36 -43 98 -43h82v-36h-542v36h41 q91 0 118 73q11 33 11 131v596h-176zM1410 1297l271 111h44v-1203q0 -127 51 -155q26 -14 96 -14v-36h-445v36q97 0 121 55q13 30 13 114v824q0 212 -29 236q-15 13 -39 13q-26 0 -66 -16z" />
<glyph unicode="&#xfb06;" horiz-adv-x="1352" d="M99 671q0 117 80 190q77 73 195 73q54 0 130 -23q50 -15 67 -15q27 0 46 38h32v-309h-32q-32 120 -77 176q-61 74 -170 74q-57 0 -103 -30q-51 -33 -51 -88q0 -105 156 -181l145 -70q201 -98 201 -258q0 -127 -89 -203q-85 -73 -214 -73q-85 0 -190 30q-35 10 -54 10 q-23 0 -35 -26h-33v324h33q23 -120 91 -194q76 -85 190 -85q62 0 108 37.5t46 98.5q0 82 -84 146q-42 32 -162 90q-106 51 -156 99q-70 68 -70 169zM809 838v32q122 49 213 197q20 34 63 138h31v-298h212v-69h-212v-589q0 -149 90 -149q77 0 111 80h38q-69 -195 -228 -195 q-110 0 -154 98q-21 47 -21 145v610h-143z" />
<glyph unicode="&#xfb1d;" horiz-adv-x="611" d="M0 -132h146v-144h-146v144zM247 476v552q16 20 51.5 30t74 10t74.5 -10t53 -30v-552q-19 -24 -55 -35t-73.5 -11t-72 12t-52.5 34z" />
<glyph unicode="&#xfb1f;" horiz-adv-x="1327" d="M0 -132h395v-121h-395v121zM496 476v552q16 20 51.5 30t74 10t74.5 -10t53 -30v-552q-19 -24 -55 -35t-73.5 -11t-72 12t-52.5 34zM962 476v552q16 20 51.5 30t74 10t74.5 -10t53 -30v-552q-19 -24 -55 -35t-73.5 -11t-72 12t-52.5 34z" />
<glyph unicode="&#xfb20;" horiz-adv-x="1110" d="M52 86q0 28 10 52t31 36h339q22 0 34 4t22 8q-18 7 -41 23t-46.5 37t-42.5 45.5t-27 47.5l-279 689q16 18 53 29t77 12h8l74 -9q40 -10 65 -32l302 -809q62 40 88 96t26 163v550q19 22 56 32q34 9 70 9h7q40 -1 75.5 -11t50.5 -30v-473q0 -129 -40.5 -231.5t-112 -174.5 t-168.5 -110.5t-213 -38.5h-377q-21 10 -31 34t-10 52z" />
<glyph unicode="&#xfb21;" horiz-adv-x="1151" d="M50 1028q14 18 51 29t81 13h15q37 0 73 -8q44 -10 75 -34l369 -483q31 45 49.5 80.5t27 84t9.5 122.5t1 196q20 20 55.5 31t73 11t72 -11t54.5 -31q0 -103 -8 -184.5t-34.5 -151t-76 -133.5t-132.5 -133l306 -397q-14 -23 -51.5 -35t-83 -12t-92 11t-79.5 36l-410 545 q-37 -44 -54 -102t-25 -127t-8 -149v-167q-24 -25 -56.5 -36t-68 -11t-68 12t-57.5 35q0 113 9.5 210.5t37 179.5t74 150t123.5 124z" />
<glyph unicode="&#xfb22;" horiz-adv-x="1068" d="M40 975q0 27 7.5 49t24.5 32h878q28 -36 28 -83v-7q-2 -51 -28 -88h-119q-21 0 -28 -36.5t-7 -95.5v-717q-23 -27 -60 -38q-34 -10 -68 -10h-6q-38 1 -72 14t-49 34v644q0 25 2.5 53t11.5 57.5t24.5 53.5t42.5 41h-550q-17 18 -24.5 44t-7.5 53z" />
<glyph unicode="&#xfb23;" horiz-adv-x="1114" d="M70 891v9q0 22 7 44q9 27 32 52q52 30 144 55t251 25q116 0 210.5 -27t160 -82.5t102 -143t36.5 -206.5v-588q-22 -23 -56.5 -34t-71.5 -11t-71 11t-57 34v563q0 152 -76.5 233t-238.5 81q-116 0 -193.5 -27.5t-139.5 -67.5q-16 12 -26.5 33t-12.5 47zM103 29v583 q20 27 52.5 41t69 14t72 -14t59.5 -41v-583q-24 -23 -58.5 -34t-71 -11t-70 11t-53.5 34z" />
<glyph unicode="&#xfb24;" horiz-adv-x="1015" d="M60 135q0 27 10 50.5t31 35.5q39 -30 101.5 -52.5t123.5 -22.5q73 0 137 24.5t111.5 72t75 116.5t27.5 160t-27.5 162t-75 118.5t-111.5 72t-137 24.5q-61 0 -123.5 -20.5t-101.5 -49.5q-23 16 -32 41t-8 52t11.5 52t28.5 39q58 32 145.5 45t185.5 13q101 0 193.5 -32 t163 -100t113 -171.5t42.5 -243.5q0 -138 -44.5 -240.5t-117.5 -170t-168 -101.5t-195 -34q-97 0 -178.5 14.5t-139.5 47.5q-23 15 -32 43t-9 55z" />
<glyph unicode="&#xfb25;" horiz-adv-x="950" d="M50 981v406q20 29 55 41.5t72.5 12.5t72 -14t54.5 -40v-304q0 -17 3 -22t17 -5h414q102 0 102 -114v-412q0 -102 -34 -197t-99.5 -169.5t-164 -119t-226.5 -44.5h-59q-18 14 -28 37t-10 49t8 49t26 39h57q144 0 208 78.5t64 227.5v367q0 31 -25 31h-417q-90 0 -90 103z " />
<glyph unicode="&#xfb26;" horiz-adv-x="1179" d="M101 105v797q0 96 32.5 125t85.5 29h486q91 0 161.5 -18t117 -61.5t70.5 -113.5t24 -174v-584q0 -105 -89 -105h-799q-89 0 -89 105zM356 207q0 -33 23 -33h424q22 0 22 33v482q0 49 -14.5 84.5t-39 58.5t-54.5 34.5t-63 11.5h-269q-21 0 -25 -10.5t-4 -29.5v-631z" />
<glyph unicode="&#xfb27;" horiz-adv-x="962" d="M28 905.5q0 27.5 10 54.5t32 46q53 28 143.5 45t185.5 17q217 0 339.5 -126.5t122.5 -359.5v-553q-19 -25 -55 -36t-75.5 -11t-75 12t-49.5 35v551q0 59 -18.5 115.5t-54 100.5t-87 70t-120.5 26q-85 0 -150 -23.5t-106 -49.5q-20 13 -31 36t-11 50.5z" />
<glyph unicode="&#xfb28;" horiz-adv-x="1246" d="M29 96v5q0 23 8 45q9 24 31 42q10 -12 28.5 -24t41.5 -12q52 0 76.5 37.5t24.5 104.5v373q0 16 1 45t6.5 60t17 59t33.5 47h-155q-19 12 -28 36.5t-10 50.5t8 51.5t30 39.5h669q174 0 253.5 -94t79.5 -273v-660q-17 -25 -53 -36t-75.5 -11t-74.5 12t-50 35v669 q0 82 -40 131t-109 49h-211q-16 0 -23.5 -13.5t-11.5 -33.5t-4 -45v-52v-415q0 -185 -79 -264.5t-223 -79.5q-41 0 -72.5 11.5t-45.5 21.5q-20 15 -31 38t-12 50z" />
<glyph unicode="&#xfb29;" horiz-adv-x="581" d="M28 525q0 22 4 41.5t12 31.5h172v182q11 9 31 14t41.5 5t42.5 -5t33 -14v-182h169q8 -12 12.5 -31.5t4.5 -41.5t-4.5 -43.5t-12.5 -33.5h-169v-179q-10 -10 -30 -14t-42.5 -4t-42.5 5t-33 13v179h-172q-8 12 -12 33.5t-4 43.5z" />
<glyph unicode="&#xfb2a;" horiz-adv-x="2637" d="M843 1124v143h146v-143h-146zM1336 534v494q20 22 58 32q35 9 71 9h7q40 -1 74 -12t45 -29v-531q0 -183 90.5 -270t250.5 -87q166 0 257 96.5t91 303.5v488q25 20 61.5 30t74 10t71 -10t49.5 -30v-467q0 -137 -42.5 -246.5t-120.5 -187t-189.5 -119t-251.5 -41.5 q-286 0 -441 146t-155 421zM1810 284v744q21 20 55 30t70 10t69.5 -10t53.5 -30v-744q-16 -17 -48.5 -30.5t-73.5 -13.5q-47 0 -78 13.5t-48 30.5z" />
<glyph unicode="&#xfb2b;" horiz-adv-x="2637" d="M122 1124v143h145v-143h-145zM1336 534v494q20 22 58 32q35 9 71 9h7q40 -1 74 -12t45 -29v-531q0 -183 90.5 -270t250.5 -87q166 0 257 96.5t91 303.5v488q25 20 61.5 30t74 10t71 -10t49.5 -30v-467q0 -137 -42.5 -246.5t-120.5 -187t-189.5 -119t-251.5 -41.5 q-286 0 -441 146t-155 421zM1810 284v744q21 20 55 30t70 10t69.5 -10t53.5 -30v-744q-16 -17 -48.5 -30.5t-73.5 -13.5q-47 0 -78 13.5t-48 30.5z" />
<glyph unicode="&#xfb2e;" horiz-adv-x="1546" d="M0 -132h395v-121h-395v121zM445 1028q14 18 51 29t82 13h14q37 0 74 -8q43 -10 74 -34l369 -483q31 45 49.5 80.5t27 84t9.5 122.5t1 196q20 20 55.5 31t73 11t72 -11t54.5 -31q0 -103 -8 -184.5t-34.5 -151t-76 -133.5t-132.5 -133l306 -397q-14 -23 -51.5 -35t-83 -12 t-92 11t-79.5 36l-410 545q-37 -44 -54 -102t-25 -127t-8 -149v-167q-24 -25 -56.5 -36t-68 -11t-68 12t-57.5 35q0 113 9.5 210.5t37 179.5t74 150t123.5 124z" />
<glyph unicode="&#xfb2f;" horiz-adv-x="1546" d="M0 -132h395v-121h-144l8 -205h-119l6 205h-146v121zM445 1028q14 18 51 29t82 13h14q37 0 74 -8q43 -10 74 -34l369 -483q31 45 49.5 80.5t27 84t9.5 122.5t1 196q20 20 55.5 31t73 11t72 -11t54.5 -31q0 -103 -8 -184.5t-34.5 -151t-76 -133.5t-132.5 -133l306 -397 q-14 -23 -51.5 -35t-83 -12t-92 11t-79.5 36l-410 545q-37 -44 -54 -102t-25 -127t-8 -149v-167q-24 -25 -56.5 -36t-68 -11t-68 12t-57.5 35q0 113 9.5 210.5t37 179.5t74 150t123.5 124z" />
<glyph unicode="&#xfb30;" horiz-adv-x="1296" d="M0 438v144h146v-144h-146zM196 1028q14 18 51 29t81 13h15q37 0 73 -8q44 -10 75 -34l369 -483q31 45 49.5 80.5t27 84t9.5 122.5t1 196q20 20 55.5 31t73 11t72 -11t54.5 -31q0 -103 -8 -184.5t-34.5 -151t-76 -133.5t-132.5 -133l306 -397q-14 -23 -51.5 -35t-83 -12 t-92 11t-79.5 36l-410 545q-37 -44 -54 -102t-25 -127t-8 -149v-167q-24 -25 -56.5 -36t-68 -11t-68 12t-57.5 35q0 113 9.5 210.5t37 179.5t74 150t123.5 124z" />
<glyph unicode="&#xfb31;" horiz-adv-x="1219" d="M0 438v144h146v-144h-146zM196 90.5q0 25.5 8 48.5t25 35h606q-16 14 -24.5 38t-11.5 51t-4 55t-1 53v233q0 128 -67.5 209t-214.5 81q-87 0 -151 -24.5t-110 -52.5q-28 28 -33 82q-1 7 -1 13q0 47 34 88q75 42 156.5 55t176.5 13q216 0 341 -114t125 -348v-314 q0 -63 7.5 -90.5t28.5 -27.5h53q17 -12 25 -35t8 -50t-8 -51t-27 -38h-908q-17 14 -25 39.5t-8 51z" />
<glyph unicode="&#xfb32;" horiz-adv-x="998" d="M0 438v144h146v-144h-146zM216 29v133q0 186 106.5 291.5t290.5 105.5h31v120q0 97 -47.5 160t-144.5 63q-56 0 -96.5 -22.5t-63.5 -49.5q-19 17 -29 41.5t-10 49.5t8 49t25 42q40 27 102 42.5t128 15.5q81 0 151 -22t122 -70.5t80 -128t28 -194.5v-626q-17 -25 -52 -36 q-32 -10 -67 -10h-6q-39 1 -73 12t-55 34v403h-10q-83 0 -137 -73t-54 -197v-133q-20 -25 -51 -36q-29 -10 -60 -10h-5q-33 1 -64 12t-47 34z" />
<glyph unicode="&#xfb33;" horiz-adv-x="1213" d="M0 438v144h146v-144h-146zM186 975q0 27 7.5 49t24.5 32h878q28 -36 28 -83v-7q-2 -51 -28 -88h-119q-21 0 -28 -36.5t-7 -95.5v-717q-23 -27 -60 -38q-34 -10 -68 -10h-6q-38 1 -72 14t-49 34v644q0 25 2.5 53t11.5 57.5t24.5 53.5t42.5 41h-550q-17 18 -24.5 44 t-7.5 53z" />
<glyph unicode="&#xfb34;" horiz-adv-x="1260" d="M0 438v144h146v-144h-146zM216 891v9q0 22 7 44q9 27 32 52q52 30 144 55t251 25q116 0 210.5 -27t160 -82.5t102 -143t36.5 -206.5v-588q-22 -23 -56.5 -34t-71.5 -11t-71 11t-57 34v563q0 152 -76.5 233t-238.5 81q-116 0 -193.5 -27.5t-139.5 -67.5q-16 12 -26.5 33 t-12.5 47zM249 29v583q20 27 52.5 41t69 14t72 -14t59.5 -41v-583q-24 -23 -58.5 -34t-71 -11t-70 11t-53.5 34z" />
<glyph unicode="&#xfb35;" horiz-adv-x="611" d="M0 438v144h146v-144h-146zM247 29v999q16 20 51.5 30t74 10t74.5 -10t53 -30v-999q-19 -25 -55 -36t-73.5 -11t-72 12t-52.5 35z" />
<glyph unicode="&#xfb36;" horiz-adv-x="869" d="M0 438v144h146v-144h-146zM189 964q0 27 8.5 51.5t29.5 40.5h552q13 -16 21.5 -40.5t8.5 -50.5t-7.5 -49.5t-22.5 -37.5h-116q-14 0 -23.5 -16.5t-15.5 -43.5t-9 -61.5t-3 -71.5v-656q-16 -23 -51.5 -35t-75 -12t-76 12t-52.5 35v644q0 25 5 55t17.5 59.5t31.5 53.5 t45 37h-229q-19 12 -28.5 35.5t-9.5 50.5z" />
<glyph unicode="&#xfb38;" horiz-adv-x="1353" d="M0 438v144h146v-144h-146zM247 445v583q20 20 56.5 29t74 9t72.5 -9t50 -29v-614q0 -132 56 -203t190 -71q68 0 116 23t78.5 63.5t44.5 94.5t14 115v363q0 29 -12 46.5t-30 17.5q-19 0 -35 -12.5t-33 -47.5l-91 -193q-36 -45 -90 -51q-7 -1 -13 -1q-47 0 -90 42l124 270 q52 111 110 154.5t154 43.5q41 0 86.5 -12t84 -46.5t64 -94.5t25.5 -153v-282q0 -126 -38.5 -221t-106.5 -159.5t-160.5 -98.5t-201.5 -34q-248 0 -373.5 114t-125.5 364z" />
<glyph unicode="&#xfb39;" horiz-adv-x="611" d="M0 438v144h146v-144h-146zM247 476v552q16 20 51.5 30t74 10t74.5 -10t53 -30v-552q-19 -24 -55 -35t-73.5 -11t-72 12t-52.5 34z" />
<glyph unicode="&#xfb3a;" horiz-adv-x="1107" d="M0 438v144h146v-144h-146zM174 905.5q0 27.5 10 54.5t32 46q53 28 143.5 45t187.5 17q217 0 338.5 -126.5t121.5 -359.5v-917q-19 -23 -55 -35.5t-75.5 -12.5t-75 12.5t-49.5 35.5v915q0 59 -18.5 115.5t-53 100.5t-86 70t-120.5 26q-85 0 -151 -23.5t-107 -49.5 q-20 13 -31 36t-11 50.5z" />
<glyph unicode="&#xfb3b;" horiz-adv-x="1161" d="M0 438v144h146v-144h-146zM206 135q0 27 10 50.5t31 35.5q39 -30 101.5 -52.5t123.5 -22.5q73 0 137 24.5t111.5 72t75 116.5t27.5 160t-27.5 162t-75 118.5t-111.5 72t-137 24.5q-61 0 -123.5 -20.5t-101.5 -49.5q-23 16 -32 41t-8 52t11.5 52t28.5 39q58 32 145.5 45 t185.5 13q101 0 193.5 -32t163 -100t113 -171.5t42.5 -243.5q0 -138 -44.5 -240.5t-117.5 -170t-168 -101.5t-195 -34q-97 0 -178.5 14.5t-139.5 47.5q-23 15 -32 43t-9 55z" />
<glyph unicode="&#xfb3c;" horiz-adv-x="1095" d="M0 438v144h146v-144h-146zM196 981v406q20 29 55 41.5t72.5 12.5t72 -14t54.5 -40v-304q0 -17 3 -22t17 -5h414q102 0 102 -114v-412q0 -102 -34 -197t-99.5 -169.5t-164 -119t-226.5 -44.5h-59q-18 14 -28 37t-10 49t8 49t26 39h57q144 0 208 78.5t64 227.5v367 q0 31 -25 31h-417q-90 0 -90 103z" />
<glyph unicode="&#xfb3e;" horiz-adv-x="1384" d="M0 438v144h146v-144h-146zM186 1028q11 20 48 31t80.5 11t85 -11t59.5 -31l106 -264l27 74q44 121 122.5 175.5t211.5 54.5q76 0 142 -20t115 -62t76 -106.5t27 -155.5v-347q0 -114 -33.5 -189.5t-88 -122.5t-124 -67.5t-141.5 -20.5q-15 0 -39 2.5t-48 7.5t-47.5 12 t-37.5 17q-17 23 -23 48t-3 47.5t12.5 40.5t21.5 28q23 -16 50 -26t56 -10q36 0 71.5 11t61.5 37.5t42.5 68t16.5 100.5v377q0 38 -14.5 67t-34.5 47t-45.5 27t-45.5 9q-48 0 -87.5 -30t-68.5 -110l-251 -719q-22 -25 -61.5 -36t-82.5 -11t-78.5 12t-47.5 35l233 606 q-6 -1 -13 -1q-28 0 -60 14q-40 17 -53 45z" />
<glyph unicode="&#xfb40;" horiz-adv-x="919" d="M0 438v144h146v-144h-146zM216 88q0 28 9 52t28 34h288q22 0 22 33v499q0 85 -46.5 135.5t-120.5 50.5q-31 0 -62 -12t-42 -27q-23 17 -33 44.5t-9 54.5t11 49.5t31 32.5q17 10 59.5 21t102.5 11q70 0 136 -18t117 -63t81 -117.5t30 -182.5v-580q0 -105 -89 -105h-476 q-19 10 -28 35t-9 53z" />
<glyph unicode="&#xfb41;" horiz-adv-x="1351" d="M0 438v144h146v-144h-146zM216 523q0 140 44.5 245.5t119 174.5t170.5 103.5t200 34.5q105 0 201.5 -33.5t169 -101.5t116.5 -173.5t44 -249.5t-44 -249.5t-116.5 -174t-169 -102.5t-201.5 -34q-104 0 -200 35t-170.5 103.5t-119 174t-44.5 247.5zM478 525q0 -89 19 -161 t56 -122.5t86.5 -79t110.5 -28.5q124 0 196.5 103.5t72.5 281.5q0 176 -69.5 284t-199.5 108t-201 -104.5t-71 -281.5z" />
<glyph unicode="&#xfb43;" horiz-adv-x="1306" d="M0 438v144h146v-144h-146zM216 685q0 75 31.5 146t94 126t155.5 88.5t214 33.5q239 0 366.5 -116t127.5 -326v-972q-16 -26 -52.5 -39t-76 -13t-75.5 13t-51 39v972q0 52 -15 102t-45.5 87t-76 60t-106.5 23q-112 0 -174.5 -61t-62.5 -150q0 -41 16 -74.5t43.5 -58.5 t62 -39.5t71.5 -14.5q35 0 82 13.5t75 30.5q29 -23 29 -58q0 -7 -1 -15q-7 -44 -42 -76q-12 -13 -32 -24t-44.5 -20.5t-52 -15t-51.5 -5.5q-73 0 -146 20t-131.5 62.5t-95.5 107.5t-37 154z" />
<glyph unicode="&#xfb44;" horiz-adv-x="1322" d="M0 438v144h146v-144h-146zM216 685q0 75 31.5 146t94 126t155.5 88.5t214 33.5q122 0 222 -39.5t171.5 -111t110 -171.5t38.5 -221q0 -128 -46 -231.5t-125 -177t-185.5 -113t-227.5 -39.5q-118 0 -203 25t-151 71q-21 20 -30.5 50.5t-7.5 61t13 56.5t29 41 q56 -57 133.5 -91.5t162.5 -34.5q75 0 143 25.5t120 74t82 120t30 162.5q0 87 -24 156.5t-64.5 117t-91 73.5t-103.5 26q-112 0 -174.5 -61t-62.5 -150q0 -41 16 -74.5t43.5 -58.5t62 -39.5t71.5 -14.5q35 0 82 13.5t75 30.5q29 -23 29 -58q0 -7 -1 -15q-7 -44 -42 -76 q-12 -13 -32 -24t-44.5 -20.5t-52 -15t-51.5 -5.5q-73 0 -146 20t-131.5 62.5t-95.5 107.5t-37 154z" />
<glyph unicode="&#xfb46;" horiz-adv-x="1233" d="M0 438v144h146v-144h-146zM178 1028q16 20 54.5 30t82 10t87 -10t68.5 -30l316 -459q38 41 59.5 77.5t31 85t10.5 119t1 177.5q19 20 55 30t73.5 10t71.5 -10t57 -30q0 -142 -14.5 -230t-47.5 -148t-87 -105.5t-131 -99.5l211 -293q26 -36 31 -64t-3 -48t-26 -30t-39 -10 h-768q-24 10 -35.5 34t-10.5 52t12.5 53t33.5 35h507z" />
<glyph unicode="&#xfb47;" horiz-adv-x="1304" d="M0 438v144h146v-144h-146zM221 967v5q0 24 8 45q9 23 30 39h533q200 0 323 -109t123 -330q0 -139 -53.5 -252.5t-142 -195.5t-202 -130.5t-235.5 -54.5q-13 12 -20.5 35.5t-8.5 47.5t5.5 45.5t21.5 31.5q201 38 286.5 155t85.5 291q0 56 -16.5 108t-47.5 92t-77 64 t-105 24h-470q-19 16 -28 39t-10 50zM251 -335v1049q20 27 53.5 39.5t70 12.5t72 -14t59.5 -42v-1045q-18 -21 -53.5 -32.5t-75 -11.5t-74 11.5t-52.5 32.5z" />
<glyph unicode="&#xfb48;" horiz-adv-x="1107" d="M0 438v144h146v-144h-146zM174 905.5q0 27.5 10 54.5t32 46q53 28 143.5 45t185.5 17q217 0 339.5 -126.5t122.5 -359.5v-553q-19 -25 -55 -36t-75.5 -11t-75 12t-49.5 35v551q0 59 -18.5 115.5t-54 100.5t-87 70t-120.5 26q-85 0 -150 -23.5t-106 -49.5q-20 13 -31 36 t-11 50.5z" />
<glyph unicode="&#xfb49;" horiz-adv-x="1548" d="M0 438v144h146v-144h-146zM247 534v494q20 22 59 32q34 9 70 9h8q39 -1 73 -12t45 -29v-531q0 -183 90.5 -270t250.5 -87q166 0 257 96.5t91 303.5v488q25 20 61.5 30t74 10t71 -10t49.5 -30v-467q0 -137 -42.5 -246.5t-120.5 -187t-189.5 -119t-251.5 -41.5 q-286 0 -441 146t-155 421zM721 284v744q21 20 55 30t70 10t69.5 -10t53.5 -30v-744q-16 -17 -48.5 -30.5t-73.5 -13.5q-47 0 -78 13.5t-48 30.5z" />
<glyph unicode="&#xfb4a;" horiz-adv-x="1391" d="M0 438v144h146v-144h-146zM175 96v5q0 23 8 45q9 24 31 42q10 -12 28.5 -24t41.5 -12q52 0 76.5 37.5t24.5 104.5v373q0 16 1 45t6.5 60t17 59t33.5 47h-155q-19 12 -28 36.5t-10 50.5t8 51.5t30 39.5h669q174 0 253.5 -94t79.5 -273v-660q-17 -25 -53 -36t-75.5 -11 t-74.5 12t-50 35v669q0 82 -40 131t-109 49h-211q-16 0 -23.5 -13.5t-11.5 -33.5t-4 -45v-52v-415q0 -185 -79 -264.5t-223 -79.5q-41 0 -72.5 11.5t-45.5 21.5q-20 15 -31 38t-12 50z" />
<glyph unicode="&#xfb4b;" horiz-adv-x="611" d="M0 1124v143h146v-143h-146zM247 29v999q16 20 51.5 30t74 10t74.5 -10t53 -30v-999q-19 -25 -55 -36t-73.5 -11t-72 12t-52.5 35z" />
<glyph unicode="&#xfb4c;" horiz-adv-x="1655" d="M50 521q-1 3 -1 6q0 21 3 41q4 24 14 36h449q10 -12 15.5 -35.5t5.5 -47.5t-6.5 -45.5t-14.5 -33.5h-449q-8 12 -12 33.5t-4 45.5zM631 90.5q0 25.5 8 48.5t25 35h606q-16 14 -24.5 38t-11.5 51t-4 55t-1 53v233q0 128 -67.5 209t-214.5 81q-87 0 -151 -24.5t-110 -52.5 q-28 28 -34 82v13q0 47 34 88q75 42 156.5 55t176.5 13q216 0 341 -114t125 -348v-314q0 -63 7.5 -90.5t28.5 -27.5h53q17 -12 25 -35t8 -50t-8 -51t-27 -38h-908q-17 14 -25 39.5t-8 51z" />
<glyph unicode="&#xfb4d;" horiz-adv-x="1596" d="M50 521q-1 3 -1 6q0 21 3 41q4 24 14 36h449q10 -12 15.5 -35.5t5.5 -47.5t-6.5 -45.5t-14.5 -33.5h-449q-8 12 -12 33.5t-4 45.5zM641 135q0 27 10 50.5t31 35.5q39 -30 101.5 -52.5t123.5 -22.5q73 0 137 24.5t111.5 72t75 116.5t27.5 160t-27.5 162t-75 118.5 t-111.5 72t-137 24.5q-61 0 -123.5 -20.5t-101.5 -49.5q-23 16 -32 41t-8 52t11.5 52t28.5 39q58 32 145.5 45t185.5 13q101 0 193.5 -32t163 -100t113 -171.5t42.5 -243.5q0 -138 -44.5 -240.5t-117.5 -170t-168 -101.5t-195 -34q-97 0 -178.5 14.5t-139.5 47.5 q-23 15 -32 43t-9 55z" />
<glyph unicode="&#xfb4e;" horiz-adv-x="1758" d="M50 521q-1 3 -1 6q0 21 3 41q4 24 14 36h449q10 -12 15.5 -35.5t5.5 -47.5t-6.5 -45.5t-14.5 -33.5h-449q-8 12 -12 33.5t-4 45.5zM651 685q0 75 31.5 146t94 126t155.5 88.5t214 33.5q122 0 222 -39.5t171.5 -111t110 -171.5t38.5 -221q0 -128 -46 -231.5t-125 -177 t-185.5 -113t-227.5 -39.5q-118 0 -203 25t-151 71q-21 20 -30.5 50.5t-7.5 61t13 56.5t29 41q56 -57 133.5 -91.5t162.5 -34.5q75 0 143 25.5t120 74t82 120t30 162.5q0 87 -24 156.5t-64.5 117t-91 73.5t-103.5 26q-112 0 -174.5 -61t-62.5 -150q0 -41 16 -74.5 t43.5 -58.5t62 -39.5t71.5 -14.5q35 0 82 13.5t75 30.5q29 -23 29 -58q0 -7 -1 -15q-7 -44 -42 -76q-12 -13 -32 -24t-44.5 -20.5t-52 -15t-51.5 -5.5q-73 0 -146 20t-131.5 62.5t-95.5 107.5t-37 154z" />
<glyph unicode="&#xfb4f;" horiz-adv-x="2101" d="M50 981v406q20 29 55 41.5t72.5 12.5t72 -14t54.5 -40v-304q0 -17 3 -22t17 -5h414q102 0 102 -114v-412q0 -102 -34 -197t-99.5 -169.5t-164 -119t-226.5 -44.5h-59q-18 14 -28 37t-10 49t8 49t26 39h57q144 0 208 78.5t64 227.5v367q0 31 -25 31h-417q-90 0 -90 103z M1000 1028q14 18 51 29t81 13h15q37 0 73 -8q44 -10 75 -34l369 -483q31 45 49.5 80.5t27 84t9.5 122.5t1 196q20 20 55.5 31t73 11t72 -11t54.5 -31q0 -103 -8 -184.5t-34.5 -151t-76 -133.5t-132.5 -133l306 -397q-14 -23 -51.5 -35t-83 -12t-92 11t-79.5 36l-410 545 q-37 -44 -54 -102t-25 -127t-8 -149v-167q-24 -25 -56.5 -36t-68 -11t-68 12t-57.5 35q0 113 9.5 210.5t37 179.5t74 150t123.5 124z" />
</font>
</defs>
</svg>
